<?xml version="1.0" encoding="UTF-8"?>
<svg width="324px" height="295px" viewBox="0 0 324 295" version="1.1" xmlns="http://www.w3.org/2000/svg" xmlns:xlink="http://www.w3.org/1999/xlink">
    <!-- Generator: Sketch 50.2 (55047) - http://www.bohemiancoding.com/sketch -->
    <title>#1-LA-stylish-badge</title>
    <desc>Created with Sketch.</desc>
    <defs>
        <path d="M0.869684211,139.658301 C0.869684211,216.455894 63.220664,278.711504 140.135903,278.711504 C217.051142,278.711504 279.402121,216.455894 279.402121,139.658301 C279.402121,62.860708 217.051142,0.603787611 140.135903,0.603787611 C63.220664,0.603787611 0.869684211,62.860708 0.869684211,139.658301 Z" id="path-1"></path>
    </defs>
    <g id="#1-LA-stylish-badge" stroke="none" stroke-width="1" fill="none" fill-rule="evenodd">
        <g id="Stylish-Badge" transform="translate(0.000000, -1.000000)">
            <g id="badge" transform="translate(0.000000, 9.000000)">
                <path d="M162.849691,274.281085 C237.875733,274.281085 298.698021,213.551828 298.698021,138.640543 C298.698021,63.7278976 237.875733,3 162.849691,3 C87.8222876,3 27,63.7278976 27,138.640543 C27,213.551828 87.8222876,274.281085 162.849691,274.281085" id="Fill-1" stroke="#979797" fill="#FFFFFF"></path>
                <path d="M162.000646,268.604085 C233.24415,268.604085 291,210.936575 291,139.802042 C291,68.666219 233.24415,11 162.000646,11 C90.7558502,11 33,68.666219 33,139.802042 C33,210.936575 90.7558502,268.604085 162.000646,268.604085" id="Fill-1" stroke="#4385F4" stroke-width="2" stroke-dasharray="3"></path>
                <g id="Group-8" transform="translate(22.000000, 0.000000)">
                    <mask id="mask-2" fill="white">
                        <use xlink:href="#path-1"></use>
                    </mask>
                    <g id="Clip-7"></g>
                    <path d="M140.135903,278.711897 C217.051142,278.711897 279.402121,216.456287 279.402121,139.658694 C279.402121,62.8611009 217.051142,0.604180531 140.135903,0.604180531 C63.220664,0.604180531 0.86837247,62.8611009 0.86837247,139.658694 C0.86837247,216.456287 63.220664,278.711897 140.135903,278.711897 Z" id="Stroke-6" stroke="#4385F4" stroke-width="12.399" mask="url(#mask-2)"></path>
                </g>
                <g id="Group" transform="translate(121.000000, 70.000000)">
                    <polygon id="Fill-9" fill="#FF7058" points="51.2864097 70.9648637 35.4891142 70.9648637 38.1821182 65.2282265 40.5157053 59.8517664 46.2611304 59.8517664 48.5934057 65.2282265"></polygon>
                    <path d="M61.3397231,70.9648637 L25.4360632,70.9648637 C23.4618931,70.9648637 21.8458283,72.5771469 21.8458283,74.5482973 L21.8458283,86.1996956 L64.7515611,86.1996956 L64.7515611,74.5482973 C64.9299579,72.5771469 63.3152049,70.9648637 61.3397231,70.9648637" id="Fill-11" fill="#FFD15C"></path>
                    <path d="M48.5937992,65.2284885 C47.1574429,65.946223 45.7223984,66.6626478 44.2860421,67.2009487 L43.3874996,67.3803823 L42.4915806,67.021515 C41.0539126,66.4832142 39.6175563,65.7667894 38.1825117,65.0490549 L40.5160988,59.6725947 L46.0805036,59.6725947 L48.5937992,65.2284885 Z" id="Fill-13" fill="#F1543F"></path>
                    <path d="M79.291553,17.3706584 C79.291553,25.9729947 76.2404437,33.8615257 71.0341441,40.135154 C64.3928,48.0210655 54.5180146,53.2194018 43.3878931,53.2194018 C32.2590834,53.2194018 22.384298,48.2004991 15.7429538,40.135154 C10.7163628,34.0409593 7.4842332,25.9729947 7.4842332,17.3706584 L7.4842332,17.1912248 L79.1118445,17.1912248 L79.1118445,17.3706584 L79.291553,17.3706584 Z M0.303763563,10.0217381 L0.303763563,17.3706584 C0.303763563,35.295685 11.433885,50.7099504 27.0527838,57.1630124 C32.0780632,59.3135965 37.6437798,60.3888885 43.3878931,60.3888885 C49.1333182,60.3888885 54.6977231,59.3135965 59.7243142,57.1630124 C75.3419012,50.7099504 86.4733344,35.295685 86.4733344,17.3706584 L86.4733344,10.0217381 L0.303763563,10.0217381 Z" id="Fill-15" fill="#F8B64C"></path>
                    <path d="M71.3929053,0.162449558 L15.382881,0.162449558 C14.1262332,0.162449558 13.2290024,1.23774159 13.2290024,2.31434336 C13.2290024,3.56906903 14.1262332,4.64436106 15.382881,4.64436106 L71.3929053,4.64436106 C72.649553,4.64436106 73.5480955,3.56906903 73.5480955,2.49246726 C73.5480955,1.23774159 72.649553,0.162449558 71.3929053,0.162449558" id="Fill-17" fill="#F8B64C"></path>
                    <path d="M71.3929053,4.64423009 L71.3929053,24.0021062 C71.3929053,41.9271327 60.2627838,58.2385664 43.3872372,64.6916283 C26.5130024,58.0591327 15.3841927,41.9271327 15.3841927,23.8239823 L15.3841927,4.64423009 L71.3929053,4.64423009 Z" id="Fill-19" fill="#FFD15C"></path>
                    <polygon id="Fill-21" fill="#FFC952" points="15.3830121 7.33376991 71.2146397 7.33376991 71.2146397 4.64488496 15.3830121 4.64488496"></polygon>
                    <path d="M57.3756002,14.8289264 L36.7242873,14.8289264 C29.2565448,16.6016131 29.0976567,22.7818747 29.0976567,22.7818747 L29.0976567,43.6623302 L37.0420636,43.6623302 L37.0420636,24.651128 C37.0420636,23.0343274 38.6295633,22.7487662 38.6295633,22.7487662 L57.3756002,22.7487662 L57.3756002,14.8289264 Z M40.9355137,25.0456715 C40.9355137,25.0456715 39.3272895,24.8870264 39.3272895,26.3079347 L39.3272895,32.6192511 L49.9382538,32.6192511 L49.9382538,34.5133357 C49.9382538,34.5133357 49.9700314,35.4583088 48.9738719,35.4583088 L39.3272895,35.4583088 L39.3272895,43.6623302 L50.9026357,43.6623302 C50.9026357,43.6623302 57.9144383,42.5918206 57.9779935,35.4583088 L57.9779935,25.0456715 L40.9355137,25.0456715 Z" id="Fill-91" fill="#FFFFFF"></path>
                </g>
                <g id="wings" opacity="0.5" transform="translate(48.534413, 57.143575)" fill="#4385F4">
                    <path d="M11.805668,35.7105487 C11.8148502,35.6869735 11.8200972,35.6725664 11.8200972,35.6725664 C11.8161619,35.6738761 11.8122267,35.6882832 11.805668,35.7105487" id="Fill-23"></path>
                    <path d="M5.24696356,52.7358699 C5.25221053,52.7122947 5.25483401,52.6978876 5.25614575,52.6991974 C5.25221053,52.6991974 5.24958704,52.7136045 5.24696356,52.7358699" id="Fill-24"></path>
                    <path d="M2.62726673,68.5162178 C2.63120195,68.4468019 2.63251369,68.4101293 2.62857847,68.416678 C2.62201977,68.4179877 2.62201977,68.4520408 2.62726673,68.5162178" id="Fill-25"></path>
                    <path d="M0.00614878543,85.5034798 C0.00352530364,85.4602586 0.00221356275,85.4379931 0.00221356275,85.4432321 C-0.00172165992,85.4445418 -0.000409919028,85.4654975 0.00614878543,85.5034798" id="Fill-26"></path>
                    <path d="M1.31488104,103.805354 C1.31225756,103.787018 1.31225756,103.77654 1.3135693,103.779159 C1.31094581,103.780469 1.31094581,103.789637 1.31488104,103.805354" id="Fill-27"></path>
                    <path d="M3.93608429,120.814648 C3.93608429,120.810719 3.93477255,120.80417 3.93739604,120.80548 C3.93477255,120.80679 3.93477255,120.809409 3.93608429,120.814648" id="Fill-28"></path>
                    <path d="M21.0428228,153.622018 C21.0060941,153.573558 20.9864179,153.548673 20.9890414,153.548673 C20.9824827,153.553912 21.0034706,153.580106 21.0428228,153.622018" id="Fill-29"></path>
                    <path d="M34.1856489,169.338832 C34.1331793,169.291681 34.104321,169.265487 34.1056327,169.265487 C34.1016975,169.273345 34.1292441,169.29823 34.1856489,169.338832" id="Fill-30"></path>
                    <path d="M48.6427017,182.430938 C48.570556,182.387717 48.5325155,182.362832 48.535139,182.362832 C48.5285803,182.372 48.5666208,182.395575 48.6427017,182.430938" id="Fill-31"></path>
                    <path d="M111.497976,187.163841 C101.295332,187.631779 91.4043292,186.343589 82.1537041,183.680152 C85.5580919,179.280993 79.9275053,174.909039 74.5375533,170.694878 C68.8898724,166.499761 63.2356168,162.303283 63.2329869,162.28968 C63.1093822,162.388981 69.8879142,169.115587 69.2357024,174.975693 C69.0108471,176.480167 69.0726495,177.798283 69.3461576,178.949083 C67.8024144,178.245816 66.2810251,177.507182 64.7898796,176.729099 C68.7544332,172.944788 64.2625874,167.532216 59.9535186,162.395782 C55.3932957,157.210378 50.7923096,152.121554 50.7896797,152.109312 C50.6581854,152.178686 55.8482661,160.015285 54.1519894,165.788332 C53.6654604,167.250638 53.4813684,168.580996 53.5287063,169.778046 C52.1887792,168.817685 50.8804108,167.830119 49.6088607,166.809905 C54.0665181,163.678531 50.8133487,157.498759 47.6443357,151.702587 C44.2544122,145.809835 40.7540335,140.092559 40.7514036,140.081677 C40.6212242,140.121125 44.1649961,148.684116 41.482512,154.191907 C40.7448289,155.583478 40.326677,156.889351 40.1570493,158.097284 C39.0498671,156.928799 37.9755586,155.73719 36.9367535,154.523817 C41.7060523,152.078025 39.8454078,145.461602 37.8190803,139.209735 C35.5705275,132.849045 33.153662,126.873316 33.1786459,126.783537 C33.0537263,126.79714 34.9827479,135.730127 31.395583,140.81079 C30.4369894,142.079935 29.799242,143.313713 29.4192234,144.486278 C28.5592506,143.170883 27.7308364,141.840525 26.9366107,140.493843 C32.0162362,138.732275 31.3640243,131.947176 30.4632883,125.529355 C29.3679406,118.970063 28.0161791,112.797093 28.0161791,112.726358 C27.9004641,112.718196 28.3028367,121.717838 23.9201311,126.22446 C22.7669259,127.343974 21.9345669,128.47029 21.3612517,129.57348 C20.961509,128.660729 20.5749157,127.745258 20.2041017,126.825706 C19.9161292,126.114277 19.6399911,125.400128 19.3691128,124.684618 C24.4816118,123.733779 24.9431569,117.309156 25.0825409,111.208281 C25.0628167,104.982259 24.7143568,99.0949479 24.685428,99.0350954 C24.5881222,99.0119706 23.6558275,107.391322 18.8536551,111.019201 C17.582105,111.92515 16.6195667,112.884151 15.9121272,113.851313 C15.408504,111.92379 14.9601084,109.990826 14.5629955,108.0497 C19.6360463,107.910951 21.007532,101.990993 22.0003141,96.321328 C22.8550271,90.5700456 23.3257768,85.0772172 23.2718641,85.0160044 C23.1929675,84.9874384 21.2074033,92.6131928 16.1816906,95.3460041 C14.8194095,96.04383 13.7569354,96.8314347 12.9469304,97.665289 C12.7062958,95.46979 12.5300934,93.2715704 12.4156934,91.0747111 C17.2783532,91.6569128 19.3480737,86.3626859 21.0101619,81.2180903 C22.5420707,76.0150025 23.6624022,70.9601857 23.5887654,70.8894509 C23.5230183,70.8595246 20.7498031,77.6895126 15.6793823,79.5558228 C14.2868575,80.0319223 13.1757305,80.6358886 12.3012933,81.3187514 C12.355206,79.3613021 12.4551416,77.409294 12.5997854,75.4668079 C12.6339739,75.0083921 12.6747372,74.5513365 12.7141855,74.0956412 C17.096891,75.3117355 19.8293429,70.6037912 21.9240474,66.0754044 C23.9845633,61.4858048 25.4980629,56.737052 25.4993778,56.7207286 C25.4454652,56.6935229 22.1028796,62.7576708 17.1494887,63.815972 C15.824026,64.0730658 14.7326232,64.4797908 13.8450366,64.9844563 C14.2566138,62.4244011 14.7444577,59.8765884 15.3098833,57.3342168 C19.1639817,58.8903822 22.2067602,54.9251532 24.6104763,50.964005 C27.0273418,46.8994752 28.9524186,42.5098375 28.9563634,42.4921538 C28.9063956,42.4717495 25.1535478,47.8571154 20.4578857,48.194466 C19.3152001,48.2597596 18.3355675,48.4651626 17.5058383,48.7766677 C18.2737652,46.1390762 19.1219035,43.5069259 20.0528833,40.8734153 C23.3192021,42.5288814 26.4645461,39.2655592 29.0431497,35.8362822 C31.7177441,32.2301682 34.0188946,28.1289108 34.0267843,28.1085065 C33.9807612,28.0976242 29.9044374,32.922553 25.5769595,32.645055 C24.6880579,32.5729599 23.8912023,32.6178493 23.1785032,32.7538777 C24.2436071,30.1979034 25.381033,27.6392084 26.5947255,25.073712 C26.6604727,24.906397 26.7314796,24.7390821 26.7998566,24.5717671 C29.5138993,26.2353949 32.6474089,23.5597155 35.3443573,20.5657295 C38.2280277,17.3309732 40.9223462,13.446001 40.9368106,13.4242364 C40.8842129,13.4242364 36.5028222,17.817955 32.6237399,17.0453135 C31.7177441,16.8521531 30.8972195,16.8208666 30.1621663,16.9120056 C32.7263055,11.4722283 35.7085966,5.94947364 39.2116052,0.309734513 C35.4364033,5.83248918 32.0793534,11.2518622 29.1075819,16.6154636 C28.8117197,15.7544036 28.3449148,14.8457336 27.6519398,13.9030565 C26.4053737,12.2421493 26.3843346,9.55014644 26.8222107,7.25942751 C27.2364178,4.97142915 28.1082251,3.08199412 28.0819262,3.07791327 C28.0792963,3.0751927 24.8221821,8.20074432 23.3126274,13.3371782 C21.7767737,18.4042376 21.8188519,23.2169238 25.3376398,23.8113681 C23.945115,26.6285171 22.6591006,29.4388647 21.4730219,32.2451314 C21.0430355,31.5445849 20.4723501,30.827715 19.7228325,30.1081246 C18.1186019,28.594128 17.6820407,25.8980444 17.7806615,23.5610758 C17.8556132,21.2295483 18.4670618,19.2557756 18.4420779,19.2557756 C18.4407629,19.2503345 15.8029869,24.7050749 14.945644,30.0849997 C14.0856712,35.2241542 14.7299933,40.0123553 18.3079537,40.4095583 C17.398013,42.9818561 16.5682839,45.5595951 15.8148214,48.1482163 C15.2862143,47.5619337 14.6274278,46.9810923 13.8187377,46.4206551 C9.96726918,43.8986878 10.7312512,36.2253235 10.873265,35.6444821 C10.7049523,36.1301036 8.85614221,41.6882257 8.68782948,47.0681505 C8.47875352,52.3623774 9.76345299,57.1845856 13.5044663,57.2253941 C13.4992065,57.2430778 13.4952617,57.2634821 13.4900019,57.282526 C12.9824339,59.64534 12.5340382,62.0231172 12.1513898,64.4131369 C11.5228469,63.8975891 10.7628098,63.4065264 9.85023924,62.9576326 C5.42414055,60.8954414 5.19271055,52.8942486 5.26240254,52.2916426 C5.15063237,52.8003889 3.93956972,58.7584346 4.48395619,64.390012 C4.96917022,69.9222887 6.98497809,74.8097905 10.9455869,74.2901619 C10.7601799,76.5115063 10.6286856,78.7382919 10.5576787,80.9705186 C9.81210589,80.5066616 8.92451925,80.0917749 7.87387967,79.7476229 C3.06118769,78.2717143 1.67523759,70.3575797 1.60028583,69.3577707 C1.55689271,70.2174704 1.10455226,76.4652566 2.42344025,82.0560255 C3.61740864,87.76922 6.63783309,92.7995517 10.6839132,91.5385681 C10.7983133,93.5857961 10.9639961,95.6316638 11.1862215,97.6775316 C10.3038946,97.2612846 9.26508953,96.9280149 8.04482228,96.7076488 C2.70483809,95.8357065 0.140698919,87.4509135 0,86.6429045 C0.0381333518,87.3597744 0.449710562,94.1299099 2.68774383,99.9573682 C4.80480232,105.907252 8.79696977,110.883173 12.9232614,108.701276 C13.3124846,110.567587 13.7503607,112.432536 14.2382046,114.289325 C13.2020294,113.93293 11.9909667,113.703042 10.5852925,113.641829 C4.76009425,113.486757 0.779761296,104.674835 0.657471582,104.134802 C0.715329081,104.602739 2.18280565,111.87754 5.51618657,117.857351 C8.72333295,123.948704 13.8200527,128.721942 17.8279994,125.481745 C18.4525974,127.122248 19.1192736,128.751868 19.828028,130.367886 C18.6445791,130.116234 17.2862428,130.031896 15.7372398,130.173366 C9.53728277,130.856228 3.88828694,121.893314 3.82648461,121.555964 C3.82385472,121.77497 6.57866065,129.406165 11.1704422,135.335645 C15.6004857,141.353543 21.862245,145.668365 25.495433,141.447403 C26.3014932,142.813128 27.1404269,144.16253 28.0148641,145.494249 C26.7893371,145.409911 25.4231111,145.513293 23.9069817,145.866967 C17.7267488,147.432654 10.4879867,138.970325 10.6102764,138.896869 C10.4498533,138.85198 14.5248622,146.269611 20.244865,151.62233 C25.7018791,156.985931 32.7341951,160.3744 35.6573138,155.671897 C36.7118982,156.901594 37.8019861,158.109526 38.9288924,159.294334 C37.6770665,159.386833 36.3200451,159.686096 34.8578283,160.250614 C29.2219819,162.568539 21.0864286,156.086783 20.3487455,155.314142 C20.9128561,156.060938 25.8228539,162.250232 32.1832339,166.468474 C38.7697842,170.999581 46.3859351,173.084897 48.5187729,168.103536 C49.8231965,169.150955 51.1591787,170.168448 52.5306645,171.154654 C51.269634,171.440313 49.9375965,171.944979 48.5503315,172.724422 C43.2695198,175.858517 33.9334233,170.766973 32.9879792,170.074588 C33.730922,170.760171 39.7783457,176.093846 46.9829193,179.203457 C54.4925597,182.606888 62.6491521,183.346883 63.9088677,178.180523 C65.428942,178.97901 66.9766301,179.740769 68.550617,180.460359 C67.32509,180.952782 66.0693193,181.66149 64.8082888,182.640895 C60.0179508,186.569397 49.6509389,183.165965 48.4793246,182.604168 C49.4142492,183.19181 56.5136273,187.404611 64.4151208,189.182503 C72.6769087,191.213407 81.137253,190.443487 81.5396256,185.290729 C90.9125405,188.009938 100.931092,189.322612 111.282325,188.826108 L111.497976,187.163841 Z" id="Fill-32"></path>
                    <path d="M217.763417,35.7105487 C217.754235,35.6869735 217.748988,35.6725664 217.748988,35.6725664 C217.752923,35.6738761 217.756858,35.6882832 217.763417,35.7105487" id="Fill-33"></path>
                    <path d="M223.005134,52.7358699 C222.999887,52.7122947 222.995951,52.6978876 222.995951,52.6991974 C222.999887,52.6991974 223.00251,52.7136045 223.005134,52.7358699" id="Fill-34"></path>
                    <path d="M226.934862,68.5162178 C226.930927,68.4468019 226.929615,68.4101293 226.93355,68.416678 C226.940109,68.4179877 226.940109,68.4520408 226.934862,68.5162178" id="Fill-35"></path>
                    <path d="M228.242915,85.5034798 C228.245538,85.4602586 228.24685,85.4379931 228.245538,85.4432321 C228.250785,85.4445418 228.249474,85.4654975 228.242915,85.5034798" id="Fill-36"></path>
                    <path d="M228.242915,103.805354 C228.245538,103.787018 228.245538,103.77654 228.244227,103.779159 C228.24685,103.780469 228.24685,103.789637 228.242915,103.805354" id="Fill-37"></path>
                    <path d="M224.309004,120.814648 C224.309004,120.810719 224.310316,120.80417 224.307692,120.80548 C224.310316,120.80679 224.310316,120.809409 224.309004,120.814648" id="Fill-38"></path>
                    <path d="M208.566802,153.622018 C208.60353,153.573558 208.621895,153.548673 208.620583,153.548673 C208.627142,153.553912 208.606154,153.580106 208.566802,153.622018" id="Fill-39"></path>
                    <path d="M195.449393,169.338832 C195.501862,169.291681 195.530721,169.265487 195.528097,169.265487 C195.533344,169.273345 195.505798,169.29823 195.449393,169.338832" id="Fill-40"></path>
                    <path d="M181.020243,182.430938 C181.091077,182.387717 181.130429,182.362832 181.127806,182.362832 C181.134364,182.372 181.096324,182.395575 181.020243,182.430938" id="Fill-41"></path>
                    <path d="M116.744939,187.163841 C126.946268,187.631779 136.838586,186.343589 146.089211,183.680152 C142.684823,179.280993 148.31541,174.909039 153.705362,170.694878 C159.353043,166.499761 165.007298,162.303283 165.009928,162.28968 C165.133533,162.388981 158.355001,169.115587 159.007213,174.975693 C159.232068,176.480167 159.170266,177.798283 158.896757,178.949083 C160.440501,178.245816 161.96189,177.507182 163.453035,176.729099 C159.488482,172.944788 163.979013,167.532216 168.289396,162.395782 C172.849619,157.210378 177.450605,152.121554 177.453235,152.109312 C177.58473,152.178686 172.394649,160.015285 174.090926,165.788332 C174.577455,167.250638 174.761547,168.580996 174.714209,169.778046 C176.052821,168.817685 177.362504,167.830119 178.634054,166.809905 C174.176397,163.678531 177.429566,157.498759 180.598579,151.702587 C183.988503,145.809835 187.488881,140.092559 187.491511,140.081677 C187.621691,140.121125 184.077919,148.684116 186.760403,154.191907 C187.498086,155.583478 187.916238,156.889351 188.085866,158.097284 C189.193048,156.928799 190.267356,155.73719 191.306162,154.523817 C186.536863,152.078025 188.397507,145.461602 190.423835,139.209735 C192.672387,132.849045 195.089253,126.873316 195.064269,126.783537 C195.189189,126.79714 193.260167,135.730127 196.847332,140.81079 C197.805926,142.079935 198.442358,143.313713 198.822377,144.486278 C199.683664,143.170883 200.512079,141.840525 201.306304,140.493843 C196.226679,138.732275 196.878891,131.947176 197.778312,125.529355 C198.874974,118.970063 200.226736,112.797093 200.226736,112.726358 C200.342451,112.718196 199.940078,121.717838 204.322784,126.22446 C205.475989,127.343974 206.309663,128.47029 206.881663,129.57348 C207.281406,128.660729 207.667999,127.745258 208.038813,126.825706 C208.326786,126.114277 208.602924,125.400128 208.873802,124.684618 C203.761303,123.733779 203.299758,117.309156 203.160374,111.208281 C203.180098,104.982259 203.528558,99.0949479 203.557487,99.0350954 C203.654793,99.0119706 204.587087,107.391322 209.38926,111.019201 C210.66081,111.92515 211.623348,112.884151 212.329473,113.851313 C212.834411,111.92379 213.282807,109.990826 213.679919,108.0497 C208.606869,107.910951 207.235383,101.990993 206.242601,96.321328 C205.387888,90.5700456 204.917138,85.0772172 204.971051,85.0160044 C205.049947,84.9874384 207.034197,92.6131928 212.061224,95.3460041 C213.423506,96.04383 214.48598,96.8314347 215.295985,97.665289 C215.535304,95.46979 215.711507,93.2715704 215.827222,91.0747111 C210.964562,91.6569128 208.894841,86.3626859 207.232753,81.2180903 C205.700844,76.0150025 204.579198,70.9601857 204.65415,70.8894509 C204.719897,70.8595246 207.493112,77.6895126 212.563533,79.5558228 C213.956058,80.0319223 215.067184,80.6358886 215.941622,81.3187514 C215.886394,79.3613021 215.787773,77.409294 215.64313,75.4668079 C215.608941,75.0083921 215.568178,74.5513365 215.52873,74.0956412 C211.146024,75.3117355 208.413572,70.6037912 206.318868,66.0754044 C204.258352,61.4858048 202.744852,56.737052 202.743537,56.7207286 C202.79745,56.6935229 206.140035,62.7576708 211.093426,63.815972 C212.418889,64.0730658 213.510292,64.4797908 214.397878,64.9844563 C213.986301,62.4244011 213.498457,59.8765884 212.933032,57.3342168 C209.078933,58.8903822 206.036155,54.9251532 203.632439,50.964005 C201.215573,46.8994752 199.290496,42.5098375 199.286552,42.4921538 C199.336519,42.4717495 203.089367,47.8571154 207.785029,48.194466 C208.927715,48.2597596 209.907348,48.4651626 210.737077,48.7766677 C209.96915,46.1390762 209.121011,43.5069259 208.190032,40.8734153 C204.923713,42.5288814 201.778369,39.2655592 199.199765,35.8362822 C196.525171,32.2301682 194.22402,28.1289108 194.216131,28.1085065 C194.262154,28.0976242 198.338478,32.922553 202.665955,32.645055 C203.554857,32.5729599 204.351713,32.6178493 205.064412,32.7538777 C203.999308,30.1979034 202.861882,27.6392084 201.648189,25.073712 C201.581127,24.906397 201.511435,24.7390821 201.443058,24.5717671 C198.729016,26.2353949 195.595506,23.5597155 192.898558,20.5657295 C190.014887,17.3309732 187.320569,13.446001 187.306104,13.4242364 C187.358702,13.4242364 191.740093,17.817955 195.619175,17.0453135 C196.523856,16.8521531 197.345695,16.8208666 198.080749,16.9120056 C195.51661,11.4722283 192.534318,5.94947364 189.03131,0.309734513 C192.806512,5.83248918 196.163562,11.2518622 199.135333,16.6154636 C199.42988,15.7544036 199.898,14.8457336 200.590975,13.9030565 C201.836226,12.2421493 201.857265,9.55014644 201.420704,7.25942751 C201.006497,4.97142915 200.13469,3.08199412 200.160989,3.07791327 C200.163619,3.0751927 203.420733,8.20074432 204.930288,13.3371782 C206.464826,18.4042376 206.424063,23.2169238 202.905275,23.8113681 C204.2978,26.6285171 205.583814,29.4388647 206.769893,32.2451314 C207.198565,31.5445849 207.770565,30.827715 208.520082,30.1081246 C210.124313,28.594128 210.560874,25.8980444 210.462254,23.5610758 C210.387302,21.2295483 209.775853,19.2557756 209.800837,19.2557756 C209.802152,19.2503345 212.439928,24.7050749 213.297271,30.0849997 C214.157244,35.2241542 213.512922,40.0123553 209.934961,40.4095583 C210.844902,42.9818561 211.674631,45.5595951 212.428094,48.1482163 C212.955386,47.5619337 213.615487,46.9810923 214.422862,46.4206551 C218.275646,43.8986878 217.511664,36.2253235 217.36965,35.6444821 C217.537963,36.1301036 219.386773,41.6882257 219.555085,47.0681505 C219.764161,52.3623774 218.479462,57.1845856 214.738449,57.2253941 C214.743708,57.2430778 214.747653,57.2634821 214.752913,57.282526 C215.260481,59.64534 215.708877,62.0231172 216.091525,64.4131369 C216.720068,63.8975891 217.480105,63.4065264 218.392676,62.9576326 C222.818774,60.8954414 223.050204,52.8942486 222.980512,52.2916426 C223.092283,52.8003889 224.303345,58.7584346 223.758959,64.390012 C223.273745,69.9222887 221.257937,74.8097905 217.297328,74.2901619 C217.482735,76.5115063 217.614229,78.7382919 217.685236,80.9705186 C218.430809,80.5066616 219.318396,80.0917749 220.369035,79.7476229 C225.181727,78.2717143 226.566362,70.3575797 226.642629,69.3577707 C226.686022,70.2174704 227.138363,76.4652566 225.819475,82.0560255 C224.625506,87.76922 221.605082,92.7995517 217.559002,91.5385681 C217.444602,93.5857961 217.278919,95.6316638 217.056693,97.6775316 C217.93902,97.2612846 218.977825,96.9280149 220.198093,96.7076488 C225.538077,95.8357065 228.102216,87.4509135 228.242915,86.6429045 C228.204782,87.3597744 227.793204,94.1299099 225.555171,99.9573682 C223.438113,105.907252 219.445945,110.883173 215.319654,108.701276 C214.93043,110.567587 214.491239,112.432536 214.003395,114.289325 C215.040886,113.93293 216.251948,113.703042 217.657623,113.641829 C223.482821,113.486757 227.463154,104.674835 227.585443,104.134802 C227.527586,104.602739 226.060109,111.87754 222.726728,117.857351 C219.519582,123.948704 214.421547,128.721942 210.414916,125.481745 C209.790318,127.122248 209.123641,128.751868 208.414887,130.367886 C209.598336,130.116234 210.956672,130.031896 212.505675,130.173366 C218.705632,130.856228 224.354628,121.893314 224.41643,121.555964 C224.41906,121.77497 221.664254,129.406165 217.072473,135.335645 C212.641114,141.353543 206.38067,145.668365 202.747482,141.447403 C201.941422,142.813128 201.102488,144.16253 200.228051,145.494249 C201.453578,145.409911 202.819804,145.513293 204.335933,145.866967 C210.516166,147.432654 217.754928,138.970325 217.631324,138.896869 C217.793062,138.85198 213.718053,146.269611 207.99805,151.62233 C202.541036,156.985931 195.50872,160.3744 192.585601,155.671897 C191.529702,156.901594 190.440929,158.109526 189.314023,159.294334 C190.565849,159.386833 191.92287,159.686096 193.385087,160.250614 C199.020933,162.568539 207.156486,156.086783 207.89417,155.314142 C207.330059,156.060938 202.418746,162.250232 196.059681,166.468474 C189.473131,170.999581 181.85698,173.084897 179.724142,168.103536 C178.419718,169.150955 177.083736,170.168448 175.712251,171.154654 C176.973281,171.440313 178.305318,171.944979 179.692583,172.724422 C184.97208,175.858517 194.309492,170.766973 195.254936,170.074588 C194.511993,170.760171 188.464569,176.093846 181.259996,179.203457 C173.750355,182.606888 165.593763,183.346883 164.334047,178.180523 C162.813973,178.97901 161.266285,179.740769 159.692298,180.460359 C160.917825,180.952782 162.173596,181.66149 163.434626,182.640895 C168.224964,186.569397 178.591976,183.165965 179.76359,182.604168 C178.828666,183.19181 171.729288,187.404611 163.826479,189.182503 C155.566006,191.213407 147.105662,190.443487 146.703289,185.290729 C137.330375,188.009938 127.311823,189.322612 116.96059,188.826108 L116.744939,187.163841 Z" id="Fill-42"></path>
                    <g id="Group-63">
                        <path d="M11.2294981,35.3287806 C11.2386284,35.3043693 11.2438457,35.2894514 11.2438457,35.2894514 C11.2399327,35.2908076 11.2360197,35.3057255 11.2294981,35.3287806" id="Fill-43"></path>
                        <path d="M5.664444,51.9247498 C5.66966132,51.9003386 5.67226998,51.8854206 5.67357431,51.8867768 C5.66966132,51.8867768 5.66705266,51.9016948 5.664444,51.9247498" id="Fill-44"></path>
                        <path d="M2.03162429,68.939236 C2.03553728,68.8673585 2.03684161,68.8293855 2.03292862,68.8361663 C2.02640697,68.8375225 2.02640697,68.8727832 2.03162429,68.939236" id="Fill-45"></path>
                        <path d="M0.444515639,86.1723381 C0.441906979,86.1275842 0.440602649,86.1045292 0.440602649,86.1099539 C0.436689659,86.1113101 0.437993989,86.1330089 0.444515639,86.1723381" id="Fill-46"></path>
                        <path d="M1.0966806,103.611851 C1.09407194,103.592864 1.09407194,103.582015 1.09537627,103.584727 C1.09276761,103.586083 1.09276761,103.595577 1.0966806,103.611851" id="Fill-47"></path>
                        <path d="M4.24037659,120.980028 C4.24037659,120.97596 4.23907226,120.969179 4.24168092,120.970535 C4.23907226,120.971891 4.23907226,120.974604 4.24037659,120.980028" id="Fill-48"></path>
                        <path d="M20.6284995,154.636865 C20.5919783,154.586686 20.5724133,154.560919 20.575022,154.560919 C20.5685003,154.566344 20.5893696,154.593467 20.6284995,154.636865" id="Fill-49"></path>
                        <path d="M33.16611,169.352085 C33.1139368,169.303263 33.0852416,169.276139 33.0865459,169.276139 C33.0826329,169.284276 33.1100239,169.310044 33.16611,169.352085" id="Fill-50"></path>
                        <path d="M48.5328122,181.845206 C48.461074,181.800452 48.4232485,181.774685 48.4258571,181.774685 C48.4193355,181.784178 48.4571611,181.808589 48.5328122,181.845206" id="Fill-51"></path>
                        <path d="M111.042563,186.39044 C100.922267,186.856966 91.1110974,185.572664 81.9351364,182.917266 C85.3120466,178.531383 79.7269058,174.172624 74.3804574,169.971181 C68.7783604,165.788725 63.1697417,161.604913 63.1671331,161.591351 C63.0445261,161.690352 69.7683468,168.396657 69.1213992,174.239076 C68.8983588,175.73901 68.9596623,177.053148 69.2309629,178.200475 C67.6996796,177.499331 66.1905698,176.762925 64.7114597,175.987191 C68.6440144,172.214301 64.1884234,166.818065 59.9141342,161.697133 C55.3907181,156.527379 50.8268677,151.453913 50.824259,151.441707 C50.693826,151.510872 55.8420162,159.32382 54.1594306,165.079443 C53.6768285,166.537336 53.4942224,167.863679 53.5411782,169.057116 C52.212066,168.099654 50.9142578,167.115068 49.6529707,166.097934 C54.0746492,162.97601 50.8477369,156.814888 47.7043018,151.03621 C44.3417393,145.161242 40.869613,139.461222 40.8670044,139.450373 C40.7378757,139.489702 44.2530448,148.026849 41.5922118,153.518017 C40.8604827,154.905388 40.4457058,156.20732 40.2774472,157.411607 C39.1792014,156.246649 38.1135639,155.058637 37.0831432,153.848925 C41.8139479,151.410515 39.968321,144.814061 37.9583486,138.581062 C35.7279444,132.239569 33.330586,126.281874 33.3553683,126.192367 C33.231457,126.205928 35.144909,135.111956 31.5866969,140.177285 C30.6358404,141.4426 30.0032404,142.672654 29.6262891,143.84168 C28.7732573,142.530255 27.9515294,141.203912 27.1637142,139.861295 C32.2023407,138.105043 31.555393,131.340422 30.661927,124.94197 C29.5754202,118.402475 28.234569,112.248134 28.234569,112.177613 C28.119788,112.169476 28.5189129,121.141956 24.1715813,125.634977 C23.027684,126.751112 22.2020431,127.874029 21.6333553,128.97389 C21.236839,128.063894 20.853366,127.151185 20.4855449,126.234408 C20.1998967,125.525127 19.9259874,124.813133 19.6572954,124.099782 C24.7285302,123.151813 25.18635,116.74658 25.324609,110.664117 C25.305044,104.456886 24.9593966,98.5873431 24.9307013,98.5276713 C24.8341809,98.5046162 23.909411,106.858679 19.1459981,110.475608 C17.8847111,111.378823 16.9299416,112.33493 16.2282121,113.299173 C15.7286537,111.377467 15.2838772,109.450337 14.8899696,107.51507 C19.9220744,107.376739 21.2824905,101.474648 22.2672596,95.8220942 C23.1150741,90.0881694 23.5820242,84.6119186 23.5285467,84.5508905 C23.4502869,84.5224107 21.4807487,92.1251502 16.4955997,94.8497138 C15.1443139,95.5454337 14.0904153,96.3306613 13.2869481,97.161999 C13.0482557,94.9731261 12.8734755,92.7815409 12.7599988,90.5913118 C17.5834109,91.1717564 19.6364262,85.8935077 21.2850992,80.7644387 C22.8046435,75.5770541 23.9159326,70.5374929 23.8428902,70.4669716 C23.7776737,70.4371357 21.0268419,77.2465104 15.9973457,79.107188 C14.6160603,79.5818506 13.5139015,80.1839941 12.6465221,80.864796 C12.6999996,78.9132544 12.7991287,76.9671375 12.942605,75.0305139 C12.9765176,74.5734816 13.0169518,74.1178055 13.0560817,73.6634855 C17.4034133,74.8759095 20.1138109,70.182174 22.1916085,65.6674541 C24.2354935,61.0917062 25.7367772,56.3572853 25.7380815,56.3410111 C25.684604,56.3138876 22.3689974,62.3597335 17.4555865,63.4148408 C16.140822,63.6711586 15.0582281,64.0766561 14.1778054,64.5797986 C14.5860607,62.0274697 15.0699671,59.4873464 15.630829,56.9526479 C19.45382,58.5041166 22.4720394,54.5508549 24.8563545,50.6016616 C27.2537129,46.5493988 29.1632519,42.1730091 29.1671649,42.1553788 C29.1176004,42.1350361 25.3950428,47.5041488 20.7372806,47.8404812 C19.6038179,47.9055778 18.6320921,48.1103608 17.8090599,48.4209258 C18.5707886,45.7912947 19.4120814,43.1670883 20.335547,40.5415258 C23.5755025,42.1919956 26.6954597,38.9385222 29.2532507,35.519595 C31.9062578,31.9243644 34.1888351,27.8354847 34.1966611,27.8151421 C34.1510096,27.8042926 30.1075868,32.6146595 25.815037,32.337999 C24.93331,32.2661215 24.142886,32.3108754 23.4359392,32.4464933 C24.4924465,29.898233 25.6206919,27.3472603 26.8245884,24.7895067 C26.8898049,24.6226967 26.9602387,24.4558867 27.0280638,24.2890767 C29.7202008,25.9476836 32.828419,23.2800795 35.5035997,20.2951295 C38.3639952,17.0701358 41.0365672,13.1968886 41.0509149,13.1751898 C40.9987417,13.1751898 36.6527144,17.5556479 32.8049411,16.7853383 C31.9062578,16.5927608 31.0923559,16.5615687 30.3632355,16.6524327 C32.9066788,11.2290729 35.8648991,5.72298615 39.339634,0.100268022 C35.5949028,5.60635476 32.2649485,11.0093719 29.3171629,16.3567857 C29.0236886,15.4983244 28.5606515,14.5923968 27.8732696,13.6525648 C26.6367649,11.9966702 26.6158956,9.31279197 27.0502375,7.02898653 C27.4611014,4.74789345 28.3258721,2.86416082 28.2997855,2.86009229 C28.2971769,2.85737993 25.0663516,7.9674624 23.5689809,13.0883943 C22.0455235,18.1401611 22.0872621,22.9383224 25.577649,23.5309726 C24.1963636,26.3396193 22.9207289,29.1414851 21.7442233,31.9392824 C21.3177074,31.2408502 20.7516282,30.5261439 20.0081602,29.8087252 C18.4168777,28.299298 17.9838401,25.6113512 18.0816649,23.2814357 C18.1560117,20.9569449 18.7625251,18.9891291 18.7377428,18.9891291 C18.7364385,18.9837044 16.1199527,24.4219822 15.2695296,29.7856701 C14.4164978,34.9093144 15.0556195,39.6830645 18.6047012,40.0790688 C17.7021049,42.6436032 16.8790727,45.2135624 16.1316916,47.7943711 C15.607351,47.2098579 14.9538817,46.6307695 14.1517188,46.0720237 C10.3313365,43.5576679 11.0891522,35.9074621 11.2300198,35.3283737 C11.0630656,35.8125296 9.22917768,41.353877 9.06222345,46.717565 C8.854835,51.9958136 10.1291653,56.8034682 13.839984,56.8441535 C13.8347667,56.8617839 13.8308537,56.8821266 13.8256363,56.9011131 C13.322165,59.256796 12.8773885,61.6273969 12.4978285,64.0102034 C11.8743588,63.4962115 11.1204561,63.0066309 10.2152511,62.5590918 C5.82487658,60.5031245 5.59531451,52.5260796 5.664444,51.9252923 C5.55357596,52.4325033 4.35228809,58.3725673 4.89228068,63.9871483 C5.37357843,69.5027283 7.3731162,74.3754795 11.3017579,73.8574191 C11.1178474,76.0720594 10.9874144,78.2921244 10.9169806,80.5176142 C10.1774255,80.0551571 9.29700284,79.6415225 8.25484323,79.2984092 C3.4809957,77.826955 2.10623196,69.9367056 2.03188516,68.939914 C1.98884227,69.7970192 1.54015278,76.0259493 2.84839569,81.599845 C4.03272726,87.2957968 7.0287731,92.3109467 11.0421963,91.0537688 C11.155673,93.0948182 11.3200186,95.1345114 11.5404503,97.1742046 C10.6652449,96.7592139 9.63482429,96.42695 8.42440612,96.207249 C3.12752229,95.3379383 0.584078941,86.9784509 0.444515639,86.1728806 C0.482341206,86.8875869 0.890596473,93.6372898 3.11056601,99.4471606 C5.21053719,105.379088 9.17048284,110.33999 13.2634701,108.164679 C13.6495518,110.025357 14.0838937,111.884678 14.5678001,113.735863 C13.5399881,113.380544 12.3387002,113.151349 10.9443715,113.090321 C5.16618997,112.935717 1.21798328,104.150389 1.0966806,103.611986 C1.15407112,104.078512 2.60970331,111.331357 5.91617967,117.29312 C9.09744036,123.36609 14.1530232,128.124922 18.1286208,124.894503 C18.7481775,126.530055 19.4094728,128.154758 20.1125066,129.765898 C18.9386096,129.515005 17.5912368,129.430922 16.0547362,129.571965 C9.90482059,130.252767 4.30141923,121.316903 4.24011572,120.980571 C4.23750706,121.198916 6.97007825,128.80708 11.5247984,134.718664 C15.9190859,140.7184 22.130305,145.0202 25.7341686,140.811976 C26.5337228,142.17358 27.3658853,143.51891 28.2332647,144.846609 C27.0176292,144.762526 25.6624304,144.865595 24.158538,145.218202 C18.0281874,146.779164 10.8478511,138.342374 10.9691538,138.269141 C10.8100256,138.224387 14.852144,145.619631 20.5259792,150.956195 C25.9389484,156.303609 32.9145048,159.681851 35.8140302,154.99354 C36.8601028,156.219526 37.9413923,157.423813 39.0592031,158.605045 C37.817481,158.697265 36.4714125,158.995624 35.0209976,159.558439 C29.4306396,161.869368 21.3607503,155.407175 20.6290212,154.636865 C21.1885788,155.381407 26.0589467,161.552022 32.3679906,165.757533 C38.9013792,170.274965 46.4560581,172.353987 48.5716812,167.38766 C49.8655765,168.431918 51.1907757,169.44634 52.5511918,170.429569 C51.3003394,170.714367 49.9790532,171.217509 48.6029851,171.9946 C43.3647962,175.119236 34.1040537,170.043058 33.1662405,169.352763 C33.9031869,170.036278 39.9018002,175.353855 47.0482239,178.454081 C54.4972521,181.84724 62.5880106,182.585002 63.8375587,177.434234 C65.3453641,178.230311 66.8805604,178.989771 68.4418433,179.70719 C67.2262078,180.198127 65.9805727,180.904696 64.7297203,181.881145 C59.9780464,185.79779 49.6947093,182.40463 48.5325513,181.844528 C49.4599299,182.430397 56.5020072,186.630484 64.3397257,188.40301 C72.5348306,190.427785 80.9268893,189.660188 81.3260143,184.522982 C90.623278,187.233983 100.560968,188.542696 110.828653,188.047691 L111.042563,186.39044 Z" id="Fill-52" opacity="0.5"></path>
                        <path d="M217.894444,35.3287806 C217.885314,35.3043693 217.880097,35.2894514 217.880097,35.2894514 C217.88401,35.2908076 217.887923,35.3057255 217.894444,35.3287806" id="Fill-53"></path>
                        <path d="M223.459498,51.9247498 C223.454281,51.9003386 223.450368,51.8854206 223.450368,51.8867768 C223.454281,51.8867768 223.45689,51.9016948 223.459498,51.9247498" id="Fill-54"></path>
                        <path d="M227.092318,68.939236 C227.088405,68.8673585 227.087101,68.8293855 227.091014,68.8361663 C227.097535,68.8375225 227.097535,68.8727832 227.092318,68.939236" id="Fill-55"></path>
                        <path d="M228.679427,86.1723381 C228.682035,86.1275842 228.68334,86.1045292 228.682035,86.1099539 C228.687253,86.1113101 228.685948,86.1330089 228.679427,86.1723381" id="Fill-56"></path>
                        <path d="M228.027262,103.611851 C228.02987,103.592864 228.02987,103.582015 228.028566,103.584727 C228.031175,103.586083 228.031175,103.595577 228.027262,103.611851" id="Fill-57"></path>
                        <path d="M224.883566,120.980028 C224.883566,120.97596 224.88487,120.969179 224.882261,120.970535 C224.88487,120.971891 224.88487,120.974604 224.883566,120.980028" id="Fill-58"></path>
                        <path d="M208.495312,154.636865 C208.531834,154.586686 208.550094,154.560919 208.54879,154.560919 C208.555312,154.566344 208.534442,154.593467 208.495312,154.636865" id="Fill-59"></path>
                        <path d="M195.957702,169.352085 C196.009875,169.303263 196.03857,169.276139 196.035962,169.276139 C196.041179,169.284276 196.013788,169.310044 195.957702,169.352085" id="Fill-60"></path>
                        <path d="M180.59113,181.845206 C180.661564,181.800452 180.700694,181.774685 180.698085,181.774685 C180.704607,181.784178 180.666781,181.808589 180.59113,181.845206" id="Fill-61"></path>
                        <path d="M118.081379,186.39044 C128.200371,186.856966 138.012845,185.572664 147.188806,182.917266 C143.811896,178.531383 149.397037,174.172624 154.743485,169.971181 C160.345582,165.788725 165.954201,161.604913 165.956809,161.591351 C166.079416,161.690352 159.355596,168.396657 160.002543,174.239076 C160.225584,175.73901 160.16428,177.053148 159.89298,178.200475 C161.424263,177.499331 162.933373,176.762925 164.412483,175.987191 C160.479928,172.214301 164.934215,166.818065 169.209808,161.697133 C173.733224,156.527379 178.297075,151.453913 178.299683,151.441707 C178.430116,151.510872 173.281926,159.32382 174.964512,165.079443 C175.447114,166.537336 175.62972,167.863679 175.582764,169.057116 C176.910572,168.099654 178.209685,167.115068 179.470972,166.097934 C175.049293,162.97601 178.276205,156.814888 181.419641,151.03621 C184.782203,145.161242 188.254329,139.461222 188.256938,139.450373 C188.386067,139.489702 184.870898,148.026849 187.531731,153.518017 C188.26346,154.905388 188.678237,156.20732 188.846495,157.411607 C189.944741,156.246649 191.010379,155.058637 192.040799,153.848925 C187.309995,151.410515 189.155621,144.814061 191.165594,138.581062 C193.395998,132.239569 195.793356,126.281874 195.768574,126.192367 C195.892485,126.205928 193.979033,135.111956 197.537245,140.177285 C198.488102,141.4426 199.119398,142.672654 199.496349,143.84168 C200.350685,142.530255 201.172413,141.203912 201.960228,139.861295 C196.921602,138.105043 197.568549,131.340422 198.460711,124.94197 C199.548522,118.402475 200.889373,112.248134 200.889373,112.177613 C201.004154,112.169476 200.605029,121.141956 204.952361,125.634977 C206.096258,126.751112 206.923204,127.874029 207.490587,128.97389 C207.887103,128.063894 208.270576,127.151185 208.638397,126.234408 C208.924046,125.525127 209.197955,124.813133 209.466647,124.099782 C204.395412,123.151813 203.937592,116.74658 203.799333,110.664117 C203.818898,104.456886 204.164546,98.5873431 204.193241,98.5276713 C204.289762,98.5046162 205.214531,106.858679 209.977944,110.475608 C211.239231,111.378823 212.194001,112.33493 212.894426,113.299173 C213.395289,111.377467 213.840065,109.450337 214.233973,107.51507 C209.201868,107.376739 207.841452,101.474648 206.856683,95.8220942 C206.008868,90.0881694 205.541918,84.6119186 205.595396,84.5508905 C205.673656,84.5224107 207.641889,92.1251502 212.628343,94.8497138 C213.979629,95.5454337 215.033527,96.3306613 215.836994,97.161999 C216.074382,94.9731261 216.249163,92.7815409 216.363944,90.5913118 C211.540532,91.1717564 209.487516,85.8935077 207.838843,80.7644387 C206.319299,75.5770541 205.206705,70.5374929 205.281052,70.4669716 C205.346269,70.4371357 208.097101,77.2465104 213.126597,79.107188 C214.507882,79.5818506 215.610041,80.1839941 216.47742,80.864796 C216.422638,78.9132544 216.324814,76.9671375 216.181337,75.0305139 C216.147425,74.5734816 216.106991,74.1178055 216.067861,73.6634855 C211.720529,74.8759095 209.010132,70.182174 206.932334,65.6674541 C204.888449,61.0917062 203.387165,56.3572853 203.385861,56.3410111 C203.439338,56.3138876 206.754945,62.3597335 211.668356,63.4148408 C212.98312,63.6711586 214.065714,64.0766561 214.946137,64.5797986 C214.537882,62.0274697 214.053975,59.4873464 213.493113,56.9526479 C209.670122,58.5041166 206.651903,54.5508549 204.267588,50.6016616 C201.870229,46.5493988 199.96069,42.1730091 199.956777,42.1553788 C200.006342,42.1350361 203.7289,47.5041488 208.386662,47.8404812 C209.520125,47.9055778 210.49185,48.1103608 211.314882,48.4209258 C210.553154,45.7912947 209.711861,43.1670883 208.788395,40.5415258 C205.54844,42.1919956 202.428483,38.9385222 199.870692,35.519595 C197.217685,31.9243644 194.935107,27.8354847 194.927281,27.8151421 C194.972933,27.8042926 199.016356,32.6146595 203.308905,32.337999 C204.190632,32.2661215 204.981056,32.3108754 205.688003,32.4464933 C204.631496,29.898233 203.503251,27.3472603 202.299354,24.7895067 C202.232833,24.6226967 202.163704,24.4558867 202.095879,24.2890767 C199.403742,25.9476836 196.295523,23.2800795 193.620343,20.2951295 C190.759947,17.0701358 188.087375,13.1968886 188.073028,13.1751898 C188.125201,13.1751898 192.471228,17.5556479 196.319001,16.7853383 C197.21638,16.5927608 198.031587,16.5615687 198.760707,16.6524327 C196.217264,11.2290729 193.259043,5.72298615 189.784308,0.100268022 C193.52904,5.60635476 196.858994,11.0093719 199.80678,16.3567857 C200.098949,15.4983244 200.563291,14.5923968 201.250673,13.6525648 C202.485873,11.9966702 202.506742,9.31279197 202.073705,7.02898653 C201.662841,4.74789345 200.79807,2.86416082 200.824157,2.86009229 C200.826766,2.85737993 204.057591,7.9674624 205.554962,13.0883943 C207.077115,18.1401611 207.03668,22.9383224 203.546293,23.5309726 C204.927579,26.3396193 206.203214,29.1414851 207.379719,31.9392824 C207.804931,31.2408502 208.372314,30.5261439 209.115782,29.8087252 C210.707065,28.299298 211.140102,25.6113512 211.042278,23.2814357 C210.967931,20.9569449 210.361417,18.9891291 210.3862,18.9891291 C210.387504,18.9837044 213.00399,24.4219822 213.854413,29.7856701 C214.707445,34.9093144 214.068323,39.6830645 210.519241,40.0790688 C211.421838,42.6436032 212.24487,45.2135624 212.992251,47.7943711 C213.515287,47.2098579 214.170061,46.6307695 214.970919,46.0720237 C218.792606,43.5576679 218.03479,35.9074621 217.893923,35.3283737 C218.060877,35.8125296 219.894765,41.353877 220.061719,46.717565 C220.269107,51.9958136 218.994777,56.8034682 215.283958,56.8441535 C215.289176,56.8617839 215.293089,56.8821266 215.298306,56.9011131 C215.801777,59.256796 216.246554,61.6273969 216.626114,64.0102034 C217.249584,63.4962115 218.003486,63.0066309 218.908691,62.5590918 C223.299066,60.5031245 223.528628,52.5260796 223.459498,51.9252923 C223.570366,52.4325033 224.771654,58.3725673 224.231662,63.9871483 C223.750364,69.5027283 221.750826,74.3754795 217.822184,73.8574191 C218.006095,76.0720594 218.136528,78.2921244 218.206962,80.5176142 C218.946517,80.0551571 219.82694,79.6415225 220.869099,79.2984092 C225.642947,77.826955 227.016406,69.9367056 227.092057,68.939914 C227.1351,69.7970192 227.58379,76.0259493 226.275547,81.599845 C225.091215,87.2957968 222.095169,92.3109467 218.081746,91.0537688 C217.968269,93.0948182 217.803924,95.1345114 217.583492,97.1742046 C218.458697,96.7592139 219.489118,96.42695 220.699536,96.207249 C225.99642,95.3379383 228.539863,86.9784509 228.679427,86.1728806 C228.641601,86.8875869 228.233346,93.6372898 226.013376,99.4471606 C223.913405,105.379088 219.95346,110.33999 215.860472,108.164679 C215.474391,110.025357 215.038744,111.884678 214.554838,113.735863 C215.583954,113.380544 216.785242,113.151349 218.179571,113.090321 C223.957752,112.935717 227.905959,104.150389 228.027262,103.611986 C227.969871,104.078512 226.514239,111.331357 223.207763,117.29312 C220.026502,123.36609 214.969615,128.124922 210.995322,124.894503 C210.375765,126.530055 209.71447,128.154758 209.011436,129.765898 C210.185333,129.515005 211.532706,129.430922 213.069206,129.571965 C219.219122,130.252767 224.822523,121.316903 224.883827,120.980571 C224.886435,121.198916 222.153864,128.80708 217.599144,134.718664 C213.203552,140.7184 206.993637,145.0202 203.389774,140.811976 C202.59022,142.17358 201.758057,143.51891 200.890678,144.846609 C202.106313,144.762526 203.461512,144.865595 204.965404,145.218202 C211.095755,146.779164 218.276091,138.342374 218.153484,138.269141 C218.313917,138.224387 214.271798,145.619631 208.597963,150.956195 C203.184994,156.303609 196.209438,159.681851 193.309912,154.99354 C192.262535,156.219526 191.18255,157.423813 190.064739,158.605045 C191.306461,158.697265 192.65253,158.995624 194.102945,159.558439 C199.693303,161.869368 207.763192,155.407175 208.494921,154.636865 C207.935364,155.381407 203.063691,161.552022 196.755952,165.757533 C190.222563,170.274965 182.667884,172.353987 180.552261,167.38766 C179.258366,168.431918 177.933167,169.44634 176.572751,170.429569 C177.823603,170.714367 179.144889,171.217509 180.520957,171.9946 C185.757842,175.119236 195.019889,170.043058 195.957702,169.352763 C195.220756,170.036278 189.222142,175.353855 182.075719,178.454081 C174.62669,181.84724 166.535932,182.585002 165.286384,177.434234 C163.778578,178.230311 162.243382,178.989771 160.682099,179.70719 C161.897735,180.198127 163.14337,180.904696 164.394222,181.881145 C169.145896,185.79779 179.429233,182.40463 180.591391,181.844528 C179.664013,182.430397 172.621935,186.630484 164.782912,188.40301 C156.589112,190.427785 148.197053,189.660188 147.797928,184.522982 C138.500664,187.233983 128.562975,188.542696 118.29529,188.047691 L118.081379,186.39044 Z" id="Fill-62" opacity="0.5"></path>
                    </g>
                </g>
                <path d="M129.645024,223.560336 C129.205022,223.324335 128.893025,223.054338 128.709024,222.750336 C128.525023,222.446335 128.433024,222.186337 128.433024,221.970336 C128.433024,221.890336 128.461024,221.824337 128.517024,221.772336 C128.573025,221.720336 128.641024,221.694336 128.721024,221.694336 L129.789024,221.694336 C129.861025,221.694336 129.923024,221.712336 129.975024,221.748336 C130.027025,221.784336 130.069024,221.850336 130.101024,221.946336 C130.189025,222.154337 130.321023,222.332336 130.497024,222.480336 C130.673025,222.628337 130.945023,222.702336 131.313024,222.702336 C131.793027,222.702336 132.145023,222.596337 132.369024,222.384336 C132.593025,222.172335 132.705024,221.802339 132.705024,221.274336 L132.705024,220.458336 C132.273022,220.970339 131.661028,221.226336 130.869024,221.226336 C130.03702,221.226336 129.411026,220.974339 128.991024,220.470336 C128.571022,219.966334 128.345025,219.278341 128.313024,218.406336 L128.301024,218.082336 L128.313024,217.758336 C128.345025,216.902332 128.573022,216.214339 128.997024,215.694336 C129.421026,215.174334 130.04502,214.914336 130.869024,214.914336 C131.293026,214.914336 131.665023,214.994335 131.985024,215.154336 C132.305026,215.314337 132.569023,215.530335 132.777024,215.802336 L132.777024,215.334336 C132.777024,215.246336 132.807024,215.174337 132.867024,215.118336 C132.927025,215.062336 132.997024,215.034336 133.077024,215.034336 L134.061024,215.034336 C134.141025,215.034336 134.209024,215.062336 134.265024,215.118336 C134.321025,215.174337 134.349024,215.246336 134.349024,215.334336 L134.361024,221.118336 C134.361024,222.006341 134.113027,222.694334 133.617024,223.182336 C133.121022,223.670339 132.373029,223.914336 131.373024,223.914336 C130.661021,223.914336 130.085027,223.796337 129.645024,223.560336 Z M132.333024,219.522336 C132.557025,219.234335 132.681024,218.882338 132.705024,218.466336 C132.713024,218.402336 132.717024,218.274337 132.717024,218.082336 C132.717024,217.890335 132.713024,217.762337 132.705024,217.698336 C132.681024,217.282334 132.557025,216.930338 132.333024,216.642336 C132.109023,216.354335 131.773027,216.210336 131.325024,216.210336 C130.46102,216.210336 130.005025,216.738331 129.957024,217.794336 L129.945024,218.082336 C129.945024,219.330343 130.40502,219.954336 131.325024,219.954336 C131.773027,219.954336 132.109023,219.810338 132.333024,219.522336 Z M136.533024,220.674336 C136.021022,220.194334 135.745025,219.530341 135.705024,218.682336 L135.693024,218.154336 L135.705024,217.626336 C135.745025,216.786332 136.025022,216.124339 136.545024,215.640336 C137.065027,215.156334 137.78902,214.914336 138.717024,214.914336 C139.637029,214.914336 140.357022,215.156334 140.877024,215.640336 C141.397027,216.124339 141.677024,216.786332 141.717024,217.626336 C141.725024,217.722337 141.729024,217.898335 141.729024,218.154336 C141.729024,218.410338 141.725024,218.586336 141.717024,218.682336 C141.677024,219.530341 141.401027,220.194334 140.889024,220.674336 C140.377022,221.154339 139.653029,221.394336 138.717024,221.394336 C137.77302,221.394336 137.045027,221.154339 136.533024,220.674336 Z M139.695024,219.786336 C139.923026,219.522335 140.045024,219.134339 140.061024,218.622336 C140.069024,218.542336 140.073024,218.386337 140.073024,218.154336 C140.073024,217.922335 140.069024,217.766337 140.061024,217.686336 C140.045024,217.174334 139.921026,216.784338 139.689024,216.516336 C139.457023,216.248335 139.133026,216.114336 138.717024,216.114336 C138.293022,216.114336 137.965026,216.248335 137.733024,216.516336 C137.501023,216.784338 137.377024,217.174334 137.361024,217.686336 L137.349024,218.154336 L137.361024,218.622336 C137.377024,219.134339 137.501023,219.522335 137.733024,219.786336 C137.965026,220.050338 138.293022,220.182336 138.717024,220.182336 C139.141026,220.182336 139.467023,220.050338 139.695024,219.786336 Z M143.649024,220.674336 C143.137022,220.194334 142.861025,219.530341 142.821024,218.682336 L142.809024,218.154336 L142.821024,217.626336 C142.861025,216.786332 143.141022,216.124339 143.661024,215.640336 C144.181027,215.156334 144.90502,214.914336 145.833024,214.914336 C146.753029,214.914336 147.473022,215.156334 147.993024,215.640336 C148.513027,216.124339 148.793024,216.786332 148.833024,217.626336 C148.841024,217.722337 148.845024,217.898335 148.845024,218.154336 C148.845024,218.410338 148.841024,218.586336 148.833024,218.682336 C148.793024,219.530341 148.517027,220.194334 148.005024,220.674336 C147.493022,221.154339 146.769029,221.394336 145.833024,221.394336 C144.88902,221.394336 144.161027,221.154339 143.649024,220.674336 Z M146.811024,219.786336 C147.039026,219.522335 147.161024,219.134339 147.177024,218.622336 C147.185024,218.542336 147.189024,218.386337 147.189024,218.154336 C147.189024,217.922335 147.185024,217.766337 147.177024,217.686336 C147.161024,217.174334 147.037026,216.784338 146.805024,216.516336 C146.573023,216.248335 146.249026,216.114336 145.833024,216.114336 C145.409022,216.114336 145.081026,216.248335 144.849024,216.516336 C144.617023,216.784338 144.493024,217.174334 144.477024,217.686336 L144.465024,218.154336 L144.477024,218.622336 C144.493024,219.134339 144.617023,219.522335 144.849024,219.786336 C145.081026,220.050338 145.409022,220.182336 145.833024,220.182336 C146.257026,220.182336 146.583023,220.050338 146.811024,219.786336 Z M150.633024,220.620336 C150.201022,220.104334 149.965025,219.414341 149.925024,218.550336 L149.913024,218.154336 L149.925024,217.758336 C149.957025,216.910332 150.191022,216.224339 150.627024,215.700336 C151.063027,215.176334 151.68502,214.914336 152.493024,214.914336 C153.261028,214.914336 153.873022,215.178334 154.329024,215.706336 L154.329024,213.042336 C154.329024,212.954336 154.357024,212.884337 154.413024,212.832336 C154.469025,212.780336 154.537024,212.754336 154.617024,212.754336 L155.661024,212.754336 C155.749025,212.754336 155.819024,212.780336 155.871024,212.832336 C155.923025,212.884337 155.949024,212.954336 155.949024,213.042336 L155.949024,220.986336 C155.949024,221.066337 155.923025,221.134336 155.871024,221.190336 C155.819024,221.246337 155.749025,221.274336 155.661024,221.274336 L154.689024,221.274336 C154.609024,221.274336 154.541025,221.246337 154.485024,221.190336 C154.429024,221.134336 154.401024,221.066337 154.401024,220.986336 L154.401024,220.542336 C153.961022,221.110339 153.325029,221.394336 152.493024,221.394336 C151.68502,221.394336 151.065027,221.136339 150.633024,220.620336 Z M153.963024,219.660336 C154.183025,219.368335 154.305024,219.006338 154.329024,218.574336 C154.337024,218.478336 154.341024,218.326337 154.341024,218.118336 C154.341024,217.902335 154.337024,217.746337 154.329024,217.650336 C154.313024,217.250334 154.189026,216.910338 153.957024,216.630336 C153.725023,216.350335 153.389027,216.210336 152.949024,216.210336 C152.09302,216.210336 151.637025,216.738331 151.581024,217.794336 L151.569024,218.154336 L151.581024,218.514336 C151.637025,219.570342 152.09302,220.098336 152.949024,220.098336 C153.405027,220.098336 153.743023,219.952338 153.963024,219.660336 Z M158.301024,221.190336 C158.245024,221.134336 158.217024,221.066337 158.217024,220.986336 L158.217024,216.318336 L157.245024,216.318336 C157.165024,216.318336 157.097025,216.290337 157.041024,216.234336 C156.985024,216.178336 156.957024,216.110337 156.957024,216.030336 L156.957024,215.322336 C156.957024,215.242336 156.985024,215.174337 157.041024,215.118336 C157.097025,215.062336 157.165024,215.034336 157.245024,215.034336 L158.217024,215.034336 L158.217024,214.554336 C158.217024,213.826333 158.413022,213.284338 158.805024,212.928336 C159.197026,212.572335 159.78902,212.394336 160.581024,212.394336 L163.065024,212.394336 C163.153025,212.394336 163.223024,212.420336 163.275024,212.472336 C163.327025,212.524337 163.353024,212.594336 163.353024,212.682336 L163.353024,213.390336 C163.353024,213.470337 163.325025,213.538336 163.269024,213.594336 C163.213024,213.650337 163.145025,213.678336 163.065024,213.678336 L160.641024,213.678336 C160.329023,213.678336 160.109025,213.754336 159.981024,213.906336 C159.853024,214.058337 159.789024,214.294335 159.789024,214.614336 L159.789024,215.034336 L163.065024,215.034336 C163.153025,215.034336 163.223024,215.060336 163.275024,215.112336 C163.327025,215.164337 163.353024,215.234336 163.353024,215.322336 L163.353024,220.986336 C163.353024,221.066337 163.327025,221.134336 163.275024,221.190336 C163.223024,221.246337 163.153025,221.274336 163.065024,221.274336 L162.069024,221.274336 C161.989024,221.274336 161.921025,221.246337 161.865024,221.190336 C161.809024,221.134336 161.781024,221.066337 161.781024,220.986336 L161.781024,216.318336 L159.789024,216.318336 L159.789024,220.986336 C159.789024,221.066337 159.763025,221.134336 159.711024,221.190336 C159.659024,221.246337 159.589025,221.274336 159.501024,221.274336 L158.505024,221.274336 C158.425024,221.274336 158.357025,221.246337 158.301024,221.190336 Z M165.021024,221.190336 C164.965024,221.134336 164.937024,221.066337 164.937024,220.986336 L164.937024,215.334336 C164.937024,215.246336 164.965024,215.174337 165.021024,215.118336 C165.077025,215.062336 165.145024,215.034336 165.225024,215.034336 L166.209024,215.034336 C166.297025,215.034336 166.369024,215.062336 166.425024,215.118336 C166.481025,215.174337 166.509024,215.246336 166.509024,215.334336 L166.509024,215.826336 C166.909026,215.298334 167.485021,215.034336 168.237024,215.034336 L168.741024,215.034336 C168.829025,215.034336 168.899024,215.060336 168.951024,215.112336 C169.003025,215.164337 169.029024,215.234336 169.029024,215.322336 L169.029024,216.198336 C169.029024,216.278337 169.003025,216.346336 168.951024,216.402336 C168.899024,216.458337 168.829025,216.486336 168.741024,216.486336 L167.793024,216.486336 C167.417022,216.486336 167.121025,216.594335 166.905024,216.810336 C166.689023,217.026337 166.581024,217.322334 166.581024,217.698336 L166.581024,220.986336 C166.581024,221.066337 166.553025,221.134336 166.497024,221.190336 C166.441024,221.246337 166.373025,221.274336 166.293024,221.274336 L165.225024,221.274336 C165.145024,221.274336 165.077025,221.246337 165.021024,221.190336 Z M170.049024,221.190336 C169.993024,221.134336 169.965024,221.066337 169.965024,220.986336 L169.965024,215.322336 C169.965024,215.234336 169.993024,215.164337 170.049024,215.112336 C170.105025,215.060336 170.173024,215.034336 170.253024,215.034336 L171.201024,215.034336 C171.289025,215.034336 171.359024,215.060336 171.411024,215.112336 C171.463025,215.164337 171.489024,215.234336 171.489024,215.322336 L171.489024,215.730336 C171.921027,215.186334 172.501021,214.914336 173.229024,214.914336 C174.117029,214.914336 174.737023,215.270333 175.089024,215.982336 C175.281025,215.662335 175.553023,215.404337 175.905024,215.208336 C176.257026,215.012335 176.637022,214.914336 177.045024,214.914336 C177.701028,214.914336 178.237022,215.138334 178.653024,215.586336 C179.069026,216.034339 179.277024,216.686332 179.277024,217.542336 L179.277024,220.986336 C179.277024,221.066337 179.251025,221.134336 179.199024,221.190336 C179.147024,221.246337 179.077025,221.274336 178.989024,221.274336 L177.993024,221.274336 C177.913024,221.274336 177.845025,221.246337 177.789024,221.190336 C177.733024,221.134336 177.705024,221.066337 177.705024,220.986336 L177.705024,217.638336 C177.705024,217.134334 177.599025,216.770337 177.387024,216.546336 C177.175023,216.322335 176.897026,216.210336 176.553024,216.210336 C176.241023,216.210336 175.975025,216.324335 175.755024,216.552336 C175.535023,216.780337 175.425024,217.142334 175.425024,217.638336 L175.425024,220.986336 C175.425024,221.066337 175.399025,221.134336 175.347024,221.190336 C175.295024,221.246337 175.225025,221.274336 175.137024,221.274336 L174.129024,221.274336 C174.049024,221.274336 173.981025,221.246337 173.925024,221.190336 C173.869024,221.134336 173.841024,221.066337 173.841024,220.986336 L173.841024,217.638336 C173.841024,217.142334 173.733025,216.780337 173.517024,216.552336 C173.301023,216.324335 173.025026,216.210336 172.689024,216.210336 C172.377023,216.210336 172.111025,216.324335 171.891024,216.552336 C171.671023,216.780337 171.561024,217.142334 171.561024,217.638336 L171.561024,220.986336 C171.561024,221.066337 171.535025,221.134336 171.483024,221.190336 C171.431024,221.246337 171.361025,221.274336 171.273024,221.274336 L170.253024,221.274336 C170.173024,221.274336 170.105025,221.246337 170.049024,221.190336 Z M181.653024,221.118336 C181.245022,220.934335 180.943025,220.720338 180.747024,220.476336 C180.551023,220.232335 180.453024,220.022337 180.453024,219.846336 C180.453024,219.766336 180.479024,219.702337 180.531024,219.654336 C180.583025,219.606336 180.645024,219.582336 180.717024,219.582336 L181.701024,219.582336 C181.765025,219.582336 181.821024,219.614336 181.869024,219.678336 C181.909025,219.710336 181.999024,219.786336 182.139024,219.906336 C182.279025,220.026337 182.439023,220.120336 182.619024,220.188336 C182.799025,220.256337 182.997023,220.290336 183.213024,220.290336 C183.533026,220.290336 183.793023,220.228337 183.993024,220.104336 C184.193025,219.980336 184.293024,219.802337 184.293024,219.570336 C184.293024,219.410335 184.247025,219.280337 184.155024,219.180336 C184.063024,219.080336 183.899026,218.988337 183.663024,218.904336 C183.427023,218.820336 183.073027,218.726337 182.601024,218.622336 C181.921021,218.478336 181.419026,218.258338 181.095024,217.962336 C180.771023,217.666335 180.609024,217.274339 180.609024,216.786336 C180.609024,216.466335 180.705023,216.164338 180.897024,215.880336 C181.089025,215.596335 181.375022,215.364337 181.755024,215.184336 C182.135026,215.004335 182.589022,214.914336 183.117024,214.914336 C183.661027,214.914336 184.129022,215.000335 184.521024,215.172336 C184.913026,215.344337 185.211023,215.550335 185.415024,215.790336 C185.619025,216.030337 185.721024,216.242335 185.721024,216.426336 C185.721024,216.498337 185.695025,216.560336 185.643024,216.612336 C185.591024,216.664337 185.529025,216.690336 185.457024,216.690336 L184.557024,216.690336 C184.469024,216.690336 184.401025,216.658337 184.353024,216.594336 C184.297024,216.554336 184.207025,216.480337 184.083024,216.372336 C183.959024,216.264336 183.821025,216.178337 183.669024,216.114336 C183.517024,216.050336 183.333025,216.018336 183.117024,216.018336 C182.821023,216.018336 182.593025,216.082336 182.433024,216.210336 C182.273024,216.338337 182.193024,216.506335 182.193024,216.714336 C182.193024,216.858337 182.231024,216.978336 182.307024,217.074336 C182.383025,217.170337 182.537023,217.260336 182.769024,217.344336 C183.001026,217.428337 183.349022,217.514336 183.813024,217.602336 C185.253032,217.882338 185.973024,218.510331 185.973024,219.486336 C185.973024,220.054339 185.727027,220.514335 185.235024,220.866336 C184.743022,221.218338 184.057029,221.394336 183.177024,221.394336 C182.569021,221.394336 182.061026,221.302337 181.653024,221.118336 Z M187.209024,221.190336 C187.153024,221.134336 187.125024,221.066337 187.125024,220.986336 L187.125024,219.774336 C187.125024,219.694336 187.153024,219.626337 187.209024,219.570336 C187.265025,219.514336 187.333024,219.486336 187.413024,219.486336 L188.625024,219.486336 C188.705025,219.486336 188.773024,219.514336 188.829024,219.570336 C188.885025,219.626337 188.913024,219.694336 188.913024,219.774336 L188.913024,220.986336 C188.913024,221.066337 188.887025,221.134336 188.835024,221.190336 C188.783024,221.246337 188.713025,221.274336 188.625024,221.274336 L187.413024,221.274336 C187.333024,221.274336 187.265025,221.246337 187.209024,221.190336 Z M190.875745,220.662336 C190.351742,220.174334 190.073745,219.498341 190.041745,218.634336 L190.029745,218.154336 L190.041745,217.674336 C190.073745,216.810332 190.351742,216.134339 190.875745,215.646336 C191.399747,215.158334 192.10174,214.914336 192.981745,214.914336 C193.613748,214.914336 194.147743,215.026335 194.583745,215.250336 C195.019747,215.474337 195.343744,215.748335 195.555745,216.072336 C195.767746,216.396338 195.881745,216.706335 195.897745,217.002336 C195.905745,217.082337 195.879745,217.150336 195.819745,217.206336 C195.759745,217.262337 195.689745,217.290336 195.609745,217.290336 L194.541745,217.290336 C194.453744,217.290336 194.389745,217.272336 194.349745,217.236336 C194.309745,217.200336 194.269745,217.134337 194.229745,217.038336 C194.109744,216.734335 193.951746,216.514337 193.755745,216.378336 C193.559744,216.242336 193.309746,216.174336 193.005745,216.174336 C192.597743,216.174336 192.279746,216.302335 192.051745,216.558336 C191.823744,216.814338 191.701745,217.206334 191.685745,217.734336 L191.673745,218.178336 L191.685745,218.574336 C191.733745,219.614341 192.173741,220.134336 193.005745,220.134336 C193.317746,220.134336 193.569744,220.068337 193.761745,219.936336 C193.953746,219.804336 194.109744,219.582338 194.229745,219.270336 C194.261745,219.182336 194.299745,219.118336 194.343745,219.078336 C194.387745,219.038336 194.453744,219.018336 194.541745,219.018336 L195.609745,219.018336 C195.689745,219.018336 195.759745,219.046336 195.819745,219.102336 C195.879745,219.158337 195.905745,219.226336 195.897745,219.306336 C195.881745,219.586338 195.769746,219.888335 195.561745,220.212336 C195.353744,220.536338 195.033747,220.814335 194.601745,221.046336 C194.169743,221.278337 193.629748,221.394336 192.981745,221.394336 C192.10174,221.394336 191.399747,221.150339 190.875745,220.662336 Z M197.733745,220.674336 C197.221742,220.194334 196.945745,219.530341 196.905745,218.682336 L196.893745,218.154336 L196.905745,217.626336 C196.945745,216.786332 197.225742,216.124339 197.745745,215.640336 C198.265747,215.156334 198.98974,214.914336 199.917745,214.914336 C200.837749,214.914336 201.557742,215.156334 202.077745,215.640336 C202.597747,216.124339 202.877745,216.786332 202.917745,217.626336 C202.925745,217.722337 202.929745,217.898335 202.929745,218.154336 C202.929745,218.410338 202.925745,218.586336 202.917745,218.682336 C202.877745,219.530341 202.601747,220.194334 202.089745,220.674336 C201.577742,221.154339 200.85375,221.394336 199.917745,221.394336 C198.97374,221.394336 198.245747,221.154339 197.733745,220.674336 Z M200.895745,219.786336 C201.123746,219.522335 201.245745,219.134339 201.261745,218.622336 C201.269745,218.542336 201.273745,218.386337 201.273745,218.154336 C201.273745,217.922335 201.269745,217.766337 201.261745,217.686336 C201.245745,217.174334 201.121746,216.784338 200.889745,216.516336 C200.657744,216.248335 200.333747,216.114336 199.917745,216.114336 C199.493743,216.114336 199.165746,216.248335 198.933745,216.516336 C198.701744,216.784338 198.577745,217.174334 198.561745,217.686336 L198.549745,218.154336 L198.561745,218.622336 C198.577745,219.134339 198.701744,219.522335 198.933745,219.786336 C199.165746,220.050338 199.493743,220.182336 199.917745,220.182336 C200.341747,220.182336 200.667744,220.050338 200.895745,219.786336 Z" id="goodrms.co" fill="#000000"></path>
                <g id="stars" transform="translate(98.178415, 16.851540)">
                    <polygon id="Fill-71" fill="#F8B64C" points="123.790181 38.3513841 125.912578 42.6473133 130.66108 43.3362336 127.22563 46.6786761 128.036286 51.400269 123.790181 49.1724106 119.544076 51.400269 120.354732 46.6786761 116.920594 43.3362336 121.667784 42.6473133"></polygon>
                    <polygon id="Fill-73" fill="#F8B64C" points="7.06570489 38.3513841 4.94330812 42.6473133 0.196117841 43.3362336 3.63025549 46.6786761 2.81959962 51.400269 7.06570489 49.1724106 11.3118101 51.400269 10.5011543 46.6786761 13.9366037 43.3362336 9.18810165 42.6473133"></polygon>
                    <polygon id="Fill-75" fill="#F8B64C" points="105.533371 16.8148956 109.072448 23.9739044 116.984869 25.1225416 111.25912 30.6954619 112.611525 38.5630372 105.533371 34.8486301 98.4565292 38.5630372 99.808934 30.6954619 94.083185 25.1225416 101.995606 23.9739044"></polygon>
                    <polygon id="Fill-77" fill="#F8B64C" points="25.3225146 16.8148956 21.7834377 23.9739044 13.8710166 25.1225416 19.5967656 30.6954619 18.2443608 38.5630372 25.3225146 34.8486301 32.3993567 38.5630372 31.0469518 30.6954619 36.7727008 25.1225416 28.8602798 23.9739044"></polygon>
                    <polygon id="Fill-79" fill="#F8B64C" points="65.4279429 0.711840708 71.32553 12.6435221 84.5137729 14.5570442 74.9695462 23.8443717 77.223117 36.9600531 65.4279429 30.7676283 53.6327689 36.9600531 55.8863397 23.8443717 46.342113 14.5570442 59.5303559 12.6435221"></polygon>
                    <polygon id="Fill-81" fill="#FFA829" points="65.4279429 0.711840708 71.32553 12.6435221 84.5137729 14.5570442 74.9695462 23.8443717 77.223117 36.9600531 65.4279429 30.7676283 53.6327689 36.9600531 55.8863397 23.8443717 46.342113 14.5570442 59.5303559 12.6435221"></polygon>
                    <polygon id="Fill-83" fill="#F8B64C" points="105.533371 16.8148956 109.072448 23.9739044 116.984869 25.1225416 111.25912 30.6954619 112.611525 38.5630372 105.533371 34.8486301 98.4565292 38.5630372 99.808934 30.6954619 94.083185 25.1225416 101.995606 23.9739044"></polygon>
                    <polygon id="Fill-85" fill="#FFD15C" points="123.790181 38.3513841 125.912578 42.6473133 130.66108 43.3362336 127.22563 46.6786761 128.036286 51.400269 123.790181 49.1724106 119.544076 51.400269 120.354732 46.6786761 116.920594 43.3362336 121.667784 42.6473133"></polygon>
                    <polygon id="Fill-87" fill="#F8B64C" points="25.3225146 16.8148956 21.7834377 23.9739044 13.8710166 25.1225416 19.5967656 30.6954619 18.2443608 38.5630372 25.3225146 34.8486301 32.3993567 38.5630372 31.0469518 30.6954619 36.7727008 25.1225416 28.8602798 23.9739044"></polygon>
                    <polygon id="Fill-89" fill="#FFD15C" points="7.06570489 38.3513841 4.94330812 42.6473133 0.196117841 43.3362336 3.63025549 46.6786761 2.81959962 51.400269 7.06570489 49.1724106 11.3118101 51.400269 10.5011543 46.6786761 13.9366037 43.3362336 9.18810165 42.6473133"></polygon>
                </g>
                <g id="name-strip" transform="translate(0.000000, 146.515257)">
                    <polygon id="Fill-65" fill="#2C72C6" points="0 19.4381628 36.4086802 19.4381628 36.4086802 75.0508 0 75.0508 11.6862996 48.9360035"></polygon>
                    <polygon id="Fill-66" fill="#2C72C6" points="323.629827 19.4381628 287.221147 19.4381628 287.221147 75.0508 323.629827 75.0508 311.943527 48.9360035"></polygon>
                    <polygon id="Fill-67" fill="#3D597A" points="18.3665976 0.360539695 36.8136039 20.1698258 36.8136039 75.045255 18.3665976 56.627789"></polygon>
                    <polygon id="Fill-68" fill="#3D597A" points="305.637988 0.348086395 287.221278 19.3462195 287.221278 74.9588566 305.637988 56.6694104"></polygon>
                    <polygon id="Fill-69" fill="#4385F4" points="18 56.3273306 305.292529 56.3273306 305.26127 -5.68434189e-14 18 -5.68434189e-14"></polygon>
                </g>
            </g>
        </g>
        <path d="M100.458008,178 L97.9511719,178 L97.9511719,168.088867 L94.4482422,168.088867 L94.4482422,166.021973 L103.969238,166.021973 L103.969238,168.088867 L100.458008,168.088867 L100.458008,178 Z M110.759277,165.814453 C114.303711,165.814453 116.536621,168.196777 116.536621,172.015137 C116.536621,175.825195 114.303711,178.20752 110.759277,178.20752 C107.206543,178.20752 104.981934,175.825195 104.981934,172.015137 C104.981934,168.196777 107.206543,165.814453 110.759277,165.814453 Z M110.759277,167.90625 C108.800293,167.90625 107.538574,169.5 107.538574,172.015137 C107.538574,174.521973 108.791992,176.107422 110.759277,176.107422 C112.718262,176.107422 113.97168,174.521973 113.97168,172.015137 C113.97168,169.5 112.718262,167.90625 110.759277,167.90625 Z M118.146973,166.021973 L123.144043,166.021973 C125.601074,166.021973 127.294434,167.657227 127.294434,170.122559 C127.294434,172.57959 125.542969,174.223145 123.019531,174.223145 L120.653809,174.223145 L120.653809,178 L118.146973,178 L118.146973,166.021973 Z M120.653809,168.005859 L120.653809,172.26416 L122.47168,172.26416 C123.907715,172.26416 124.746094,171.500488 124.746094,170.130859 C124.746094,168.769531 123.916016,168.005859 122.47998,168.005859 L120.653809,168.005859 Z M145.10791,166.021973 L145.10791,178 L142.875,178 L142.875,169.915039 L142.808594,169.915039 L139.554688,177.883789 L137.977539,177.883789 L134.723633,169.915039 L134.657227,169.915039 L134.657227,178 L132.424316,178 L132.424316,166.021973 L135.32959,166.021973 L138.73291,174.513672 L138.799316,174.513672 L142.202637,166.021973 L145.10791,166.021973 Z M152.503906,165.814453 C156.04834,165.814453 158.28125,168.196777 158.28125,172.015137 C158.28125,175.825195 156.04834,178.20752 152.503906,178.20752 C148.951172,178.20752 146.726562,175.825195 146.726562,172.015137 C146.726562,168.196777 148.951172,165.814453 152.503906,165.814453 Z M152.503906,167.90625 C150.544922,167.90625 149.283203,169.5 149.283203,172.015137 C149.283203,174.521973 150.536621,176.107422 152.503906,176.107422 C154.462891,176.107422 155.716309,174.521973 155.716309,172.015137 C155.716309,169.5 154.462891,167.90625 152.503906,167.90625 Z M165.270508,178 L159.891602,178 L159.891602,166.021973 L165.179199,166.021973 C167.428711,166.021973 168.839844,167.175781 168.839844,169.010254 C168.839844,170.321777 167.860352,171.41748 166.590332,171.608398 L166.590332,171.674805 C168.217285,171.799316 169.412598,172.986328 169.412598,174.571777 C169.412598,176.680176 167.827148,178 165.270508,178 Z M162.398438,167.889648 L162.398438,171.002441 L164.274414,171.002441 C165.61084,171.002441 166.374512,170.413086 166.374512,169.400391 C166.374512,168.4375 165.702148,167.889648 164.531738,167.889648 L162.398438,167.889648 Z M162.398438,176.132324 L164.631348,176.132324 C166.075684,176.132324 166.855957,175.518066 166.855957,174.372559 C166.855957,173.251953 166.050781,172.654297 164.573242,172.654297 L162.398438,172.654297 L162.398438,176.132324 Z M173.347168,178 L170.840332,178 L170.840332,166.021973 L173.347168,166.021973 L173.347168,178 Z M183.083984,175.924805 L183.083984,178 L175.339355,178 L175.339355,166.021973 L177.846191,166.021973 L177.846191,175.924805 L183.083984,175.924805 Z M192.505371,175.924805 L192.505371,178 L184.569824,178 L184.569824,166.021973 L192.505371,166.021973 L192.505371,168.088867 L187.07666,168.088867 L187.07666,170.977539 L192.198242,170.977539 L192.198242,172.90332 L187.07666,172.90332 L187.07666,175.924805 L192.505371,175.924805 Z M205.811523,178 L204.898438,175.094727 L200.689941,175.094727 L199.776855,178 L197.203613,178 L201.362305,166.021973 L204.309082,166.021973 L208.476074,178 L205.811523,178 Z M202.765137,168.312988 L201.229492,173.21875 L204.358887,173.21875 L202.823242,168.312988 L202.765137,168.312988 Z M209.696289,166.021973 L214.693359,166.021973 C217.150391,166.021973 218.84375,167.657227 218.84375,170.122559 C218.84375,172.57959 217.092285,174.223145 214.568848,174.223145 L212.203125,174.223145 L212.203125,178 L209.696289,178 L209.696289,166.021973 Z M212.203125,168.005859 L212.203125,172.26416 L214.020996,172.26416 C215.457031,172.26416 216.29541,171.500488 216.29541,170.130859 C216.29541,168.769531 215.465332,168.005859 214.029297,168.005859 L212.203125,168.005859 Z M220.321289,166.021973 L225.318359,166.021973 C227.775391,166.021973 229.46875,167.657227 229.46875,170.122559 C229.46875,172.57959 227.717285,174.223145 225.193848,174.223145 L222.828125,174.223145 L222.828125,178 L220.321289,178 L220.321289,166.021973 Z M222.828125,168.005859 L222.828125,172.26416 L224.645996,172.26416 C226.082031,172.26416 226.92041,171.500488 226.92041,170.130859 C226.92041,168.769531 226.090332,168.005859 224.654297,168.005859 L222.828125,168.005859 Z M57.2399902,186.021973 L61.8552246,186.021973 C65.4494629,186.021973 67.5661621,188.163574 67.5661621,191.965332 C67.5661621,195.76709 65.4494629,198 61.8552246,198 L57.2399902,198 L57.2399902,186.021973 Z M59.7468262,188.088867 L59.7468262,195.924805 L61.5563965,195.924805 C63.7976074,195.924805 65.0095215,194.563477 65.0095215,191.973633 C65.0095215,189.466797 63.7644043,188.088867 61.5563965,188.088867 L59.7468262,188.088867 Z M77.1120605,195.924805 L77.1120605,198 L69.1765137,198 L69.1765137,186.021973 L77.1120605,186.021973 L77.1120605,188.088867 L71.6833496,188.088867 L71.6833496,190.977539 L76.8049316,190.977539 L76.8049316,192.90332 L71.6833496,192.90332 L71.6833496,195.924805 L77.1120605,195.924805 Z M85.2053223,198 L82.1838379,198 L78.157959,186.021973 L80.963623,186.021973 L83.7028809,195.418457 L83.7609863,195.418457 L86.5002441,186.021973 L89.2312012,186.021973 L85.2053223,198 Z M98.3869629,195.924805 L98.3869629,198 L90.451416,198 L90.451416,186.021973 L98.3869629,186.021973 L98.3869629,188.088867 L92.958252,188.088867 L92.958252,190.977539 L98.079834,190.977539 L98.079834,192.90332 L92.958252,192.90332 L92.958252,195.924805 L98.3869629,195.924805 Z M107.941162,195.924805 L107.941162,198 L100.196533,198 L100.196533,186.021973 L102.703369,186.021973 L102.703369,195.924805 L107.941162,195.924805 Z M114.830811,185.814453 C118.375244,185.814453 120.608154,188.196777 120.608154,192.015137 C120.608154,195.825195 118.375244,198.20752 114.830811,198.20752 C111.278076,198.20752 109.053467,195.825195 109.053467,192.015137 C109.053467,188.196777 111.278076,185.814453 114.830811,185.814453 Z M114.830811,187.90625 C112.871826,187.90625 111.610107,189.5 111.610107,192.015137 C111.610107,194.521973 112.863525,196.107422 114.830811,196.107422 C116.789795,196.107422 118.043213,194.521973 118.043213,192.015137 C118.043213,189.5 116.789795,187.90625 114.830811,187.90625 Z M122.218506,186.021973 L127.215576,186.021973 C129.672607,186.021973 131.365967,187.657227 131.365967,190.122559 C131.365967,192.57959 129.614502,194.223145 127.091064,194.223145 L124.725342,194.223145 L124.725342,198 L122.218506,198 L122.218506,186.021973 Z M124.725342,188.005859 L124.725342,192.26416 L126.543213,192.26416 C127.979248,192.26416 128.817627,191.500488 128.817627,190.130859 C128.817627,188.769531 127.987549,188.005859 126.551514,188.005859 L124.725342,188.005859 Z M145.5271,186.021973 L145.5271,198 L143.294189,198 L143.294189,189.915039 L143.227783,189.915039 L139.973877,197.883789 L138.396729,197.883789 L135.142822,189.915039 L135.076416,189.915039 L135.076416,198 L132.843506,198 L132.843506,186.021973 L135.748779,186.021973 L139.1521,194.513672 L139.218506,194.513672 L142.621826,186.021973 L145.5271,186.021973 Z M155.454834,195.924805 L155.454834,198 L147.519287,198 L147.519287,186.021973 L155.454834,186.021973 L155.454834,188.088867 L150.026123,188.088867 L150.026123,190.977539 L155.147705,190.977539 L155.147705,192.90332 L150.026123,192.90332 L150.026123,195.924805 L155.454834,195.924805 Z M159.66333,198 L157.264404,198 L157.264404,186.021973 L159.356201,186.021973 L164.950928,193.824707 L165.017334,193.824707 L165.017334,186.021973 L167.41626,186.021973 L167.41626,198 L165.341064,198 L159.738037,190.155762 L159.66333,190.155762 L159.66333,198 Z M174.820557,198 L172.313721,198 L172.313721,188.088867 L168.810791,188.088867 L168.810791,186.021973 L178.331787,186.021973 L178.331787,188.088867 L174.820557,188.088867 L174.820557,198 Z M188.66626,198.20752 C185.179932,198.20752 182.996826,195.875 182.996826,192.006836 C182.996826,188.146973 185.196533,185.814453 188.66626,185.814453 C191.546631,185.814453 193.738037,187.640625 193.928955,190.321777 L191.488525,190.321777 C191.256104,188.852539 190.127197,187.889648 188.66626,187.889648 C186.773682,187.889648 185.553467,189.475098 185.553467,191.998535 C185.553467,194.555176 186.75708,196.132324 188.674561,196.132324 C190.1604,196.132324 191.231201,195.260742 191.496826,193.841309 L193.937256,193.841309 C193.655029,196.51416 191.604736,198.20752 188.66626,198.20752 Z M200.88501,185.814453 C204.429443,185.814453 206.662354,188.196777 206.662354,192.015137 C206.662354,195.825195 204.429443,198.20752 200.88501,198.20752 C197.332275,198.20752 195.107666,195.825195 195.107666,192.015137 C195.107666,188.196777 197.332275,185.814453 200.88501,185.814453 Z M200.88501,187.90625 C198.926025,187.90625 197.664307,189.5 197.664307,192.015137 C197.664307,194.521973 198.917725,196.107422 200.88501,196.107422 C202.843994,196.107422 204.097412,194.521973 204.097412,192.015137 C204.097412,189.5 202.843994,187.90625 200.88501,187.90625 Z M220.956299,186.021973 L220.956299,198 L218.723389,198 L218.723389,189.915039 L218.656982,189.915039 L215.403076,197.883789 L213.825928,197.883789 L210.572021,189.915039 L210.505615,189.915039 L210.505615,198 L208.272705,198 L208.272705,186.021973 L211.177979,186.021973 L214.581299,194.513672 L214.647705,194.513672 L218.051025,186.021973 L220.956299,186.021973 Z M222.948486,186.021973 L227.945557,186.021973 C230.402588,186.021973 232.095947,187.657227 232.095947,190.122559 C232.095947,192.57959 230.344482,194.223145 227.821045,194.223145 L225.455322,194.223145 L225.455322,198 L222.948486,198 L222.948486,186.021973 Z M225.455322,188.005859 L225.455322,192.26416 L227.273193,192.26416 C228.709229,192.26416 229.547607,191.500488 229.547607,190.130859 C229.547607,188.769531 228.717529,188.005859 227.281494,188.005859 L225.455322,188.005859 Z M241.417725,198 L240.504639,195.094727 L236.296143,195.094727 L235.383057,198 L232.809814,198 L236.968506,186.021973 L239.915283,186.021973 L244.082275,198 L241.417725,198 Z M238.371338,188.312988 L236.835693,193.21875 L239.965088,193.21875 L238.429443,188.312988 L238.371338,188.312988 Z M247.701416,198 L245.30249,198 L245.30249,186.021973 L247.394287,186.021973 L252.989014,193.824707 L253.05542,193.824707 L253.05542,186.021973 L255.454346,186.021973 L255.454346,198 L253.37915,198 L247.776123,190.155762 L247.701416,190.155762 L247.701416,198 Z M263.356689,198 L260.849854,198 L260.849854,193.525879 L256.682861,186.021973 L259.413818,186.021973 L262.094971,191.135254 L262.153076,191.135254 L264.842529,186.021973 L267.531982,186.021973 L263.356689,193.525879 L263.356689,198 Z" id="Top-Mobile-App-Devel" fill="#FFFFFF"></path>
    </g>
</svg>