<?xml version="1.0"?>
<svg xmlns="http://www.w3.org/2000/svg" xmlns:xlink="http://www.w3.org/1999/xlink" xmlns:svgjs="http://svgjs.com/svgjs" version="1.1" width="512" height="512" x="0" y="0" viewBox="0 0 512 512" style="enable-background:new 0 0 512 512" xml:space="preserve"><g>
<g xmlns="http://www.w3.org/2000/svg">
	<path d="M340.363,218.255c-17.154,0-33.63,2.954-48.947,8.38c-14.595-14.163-31.702-25.268-50.264-32.845   c27.99-19.1,46.408-51.302,46.408-87.737C287.561,47.575,240.115,0,181.797,0S76.033,47.575,76.033,106.053   c0,36.407,18.39,68.587,46.344,87.693c-17.331,7.076-33.409,17.269-47.453,30.276c-28.992,26.852-46.793,63.282-50.121,102.581   c-0.619,7.318,1.877,14.618,6.851,20.027c4.968,5.404,12.021,8.503,19.353,8.503h142.768c-0.223,3.303-0.337,6.635-0.337,9.994   c0,80.986,65.91,146.872,146.926,146.872s146.926-65.887,146.926-146.872S421.379,218.255,340.363,218.255z M106.033,106.053   c0-41.942,33.987-76.064,75.764-76.064s75.764,34.122,75.764,76.064s-33.987,76.064-75.764,76.064S106.033,147.995,106.033,106.053   z M55.097,325.144c3.521-30.306,17.705-58.273,40.217-79.123c23.614-21.871,54.328-33.915,86.483-33.915   c29.422,0,57.847,10.278,80.441,28.679c-30.364,19.132-53.266,49.064-63.267,84.359H55.097z M340.363,482.011   c-64.473,0-116.926-52.434-116.926-116.883s52.453-116.883,116.926-116.883s116.926,52.434,116.926,116.883   S404.836,482.011,340.363,482.011z" fill="#fffcfc" data-original="#000000" style=""/>
	<path d="M321.498,335.127h57.528c8.284,0,15-6.713,15-14.995c0-8.281-6.716-14.995-15-14.995h-23.435V292.03   c0-8.281-6.716-14.995-15-14.995s-15,6.713-15,14.995v13.107h-4.094c-20.225,0-36.692,16.397-36.797,36.591   c-0.001,0.064-0.001,0.129-0.001,0.194c0,0.065,0,0.129,0.001,0.194c0.105,20.194,16.571,36.591,36.797,36.591h35.729   c3.749,0,6.799,3.049,6.799,6.796s-3.05,6.796-6.799,6.796H299.7c-8.284,0-15,6.713-15,14.995c0,8.281,6.716,14.995,15,14.995   h25.892v13.189c0,8.281,6.716,14.995,15,14.995s15-6.713,15-14.995v-13.189h1.636c20.226,0,36.693-16.397,36.798-36.591   c0.001-0.064,0.001-0.129,0.001-0.194c0-0.065,0-0.129-0.001-0.194c-0.105-20.194-16.571-36.591-36.798-36.591h-35.729   c-3.748,0-6.798-3.048-6.798-6.795S317.75,335.127,321.498,335.127z" fill="#fffcfc" data-original="#000000" style=""/>
</g>















</g></svg>
