<?xml version="1.0"?>
<svg xmlns="http://www.w3.org/2000/svg" xmlns:xlink="http://www.w3.org/1999/xlink" xmlns:svgjs="http://svgjs.com/svgjs" version="1.1" width="512" height="512" x="0" y="0" viewBox="0 0 512 512" style="enable-background:new 0 0 512 512" xml:space="preserve"><g><g xmlns="http://www.w3.org/2000/svg"><path d="m247.622 131.749c3.139 3.06 8.688 2.522 11.183-1.072l26.087-35.869c2.437-3.35 1.695-8.04-1.654-10.477-3.35-2.436-8.04-1.697-10.477 1.654l-21.102 29.014-13.368-12.478c-3.027-2.825-7.774-2.663-10.601.366-2.826 3.028-2.662 7.774.366 10.601z" fill="#ffffff" data-original="#000000" style=""/><path d="m259.034 41.987c-16.781-.778-32.948 4.887-45.521 15.936-3.112 2.733-3.418 7.473-.684 10.584 2.733 3.111 7.473 3.419 10.584.684 9.642-8.473 22.034-12.813 34.932-12.219 25.18 1.159 45.823 21.791 46.996 46.97.745 15.983-6.316 31.41-18.89 41.27-5.588 4.382-9.16 10.615-10.156 17.499h-39.711c-1.188-6.722-4.891-12.796-10.556-17.128-12.345-9.439-19.425-23.752-19.425-39.268 0-3.586.385-7.162 1.145-10.629.887-4.047-1.675-8.045-5.721-8.932-4.052-.889-8.046 1.675-8.932 5.721-.99 4.52-1.492 9.176-1.492 13.84 0 20.227 9.227 38.883 25.314 51.184 4.197 3.056 5.46 7.908 5.082 12.715v13.997c0 15.163 12.337 27.5 27.5 27.5h14c15.163 0 27.5-12.337 27.5-27.5v-13.998c-.349-4.857.502-10.149 4.707-13.197 16.385-12.848 25.588-32.949 24.618-53.771-1.529-32.838-28.451-59.745-61.29-61.258zm16.966 142.223c0 6.893-5.607 12.5-12.5 12.5h-14c-6.893 0-12.5-5.607-12.5-12.5v-6.5h39z" fill="#ffffff" data-original="#000000" style=""/><path d="m434.485 421.01c-4.015 1.021-6.44 5.104-5.419 9.118.619 2.434.934 4.938.934 7.441v9c0 4.136-3.364 7.5-7.5 7.5h-56c-4.136 0-7.5-3.364-7.5-7.5v-9c0-17.846 16.589-33.5 35.5-33.5 5.49 0 11.063 1.343 16.115 3.882 3.703 1.861 8.209.367 10.069-3.333 1.86-3.701.368-8.209-3.333-10.069-7.132-3.585-15.034-5.479-22.852-5.479-27.374 0-50.5 22.21-50.5 48.5v9c0 12.406 10.094 22.5 22.5 22.5h56c12.406 0 22.5-10.094 22.5-22.5v-9c0-3.751-.47-7.499-1.396-11.141-1.022-4.014-5.106-6.438-9.118-5.419z" fill="#ffffff" data-original="#000000" style=""/><path d="m394.5 378.569c16.508 0 29.938-13.431 29.938-29.938 0-16.509-13.431-29.939-29.938-29.939s-29.938 13.431-29.938 29.939 13.43 29.938 29.938 29.938zm0-44.878c8.237 0 14.938 6.702 14.938 14.939s-6.701 14.938-14.938 14.938-14.938-6.701-14.938-14.938 6.701-14.939 14.938-14.939z" fill="#ffffff" data-original="#000000" style=""/><path d="m67 437.569v9c0 12.406 10.094 22.5 22.5 22.5h17.346c4.143 0 7.5-3.357 7.5-7.5s-3.357-7.5-7.5-7.5h-17.346c-4.136 0-7.5-3.364-7.5-7.5v-9c0-17.846 16.589-33.5 35.5-33.5s35.5 15.654 35.5 33.5v9c0 4.136-3.364 7.5-7.5 7.5h-3.346c-4.143 0-7.5 3.357-7.5 7.5s3.357 7.5 7.5 7.5h3.346c12.406 0 22.5-10.094 22.5-22.5v-9c0-26.29-23.126-48.5-50.5-48.5s-50.5 22.21-50.5 48.5z" fill="#ffffff" data-original="#000000" style=""/><path d="m87.562 348.631c0 16.508 13.431 29.938 29.938 29.938s29.938-13.431 29.938-29.938c0-16.509-13.431-29.939-29.938-29.939s-29.938 13.43-29.938 29.939zm44.876 0c0 8.237-6.701 14.938-14.938 14.938s-14.938-6.701-14.938-14.938 6.701-14.939 14.938-14.939 14.938 6.702 14.938 14.939z" fill="#ffffff" data-original="#000000" style=""/><path d="m394.5 276.79c-7.736 0-15.297.76-22.619 2.193l-51.481-51.48c35.011-21.655 58.39-60.397 58.39-104.503 0-67.707-55.083-122.79-122.79-122.79s-122.79 55.083-122.79 122.79c0 44.106 23.379 82.848 58.391 104.503l-51.48 51.48c-7.323-1.434-14.884-2.193-22.62-2.193-64.791 0-117.501 52.71-117.501 117.5s52.71 117.5 117.5 117.5 117.5-52.71 117.5-117.5c0-51.023-32.693-94.547-78.229-110.743l48.66-48.66c15.429 7.001 32.552 10.902 50.569 10.902s35.14-3.902 50.57-10.903l48.66 48.66c-45.536 16.197-78.23 59.721-78.23 110.744 0 64.79 52.71 117.5 117.5 117.5s117.5-52.71 117.5-117.5-52.71-117.5-117.5-117.5zm-174.5 117.5c0 56.519-45.981 102.5-102.5 102.5s-102.5-45.981-102.5-102.5 45.981-102.5 102.5-102.5 102.5 45.981 102.5 102.5zm-71.79-271.29c0-59.436 48.354-107.79 107.79-107.79s107.79 48.354 107.79 107.79-48.354 107.79-107.79 107.79-107.79-48.354-107.79-107.79zm246.29 373.79c-56.519 0-102.5-45.981-102.5-102.5s45.981-102.5 102.5-102.5 102.5 45.981 102.5 102.5-45.981 102.5-102.5 102.5z" fill="#ffffff" data-original="#000000" style=""/></g></g></svg>
