<?xml version="1.0"?>
<svg xmlns="http://www.w3.org/2000/svg" xmlns:xlink="http://www.w3.org/1999/xlink" xmlns:svgjs="http://svgjs.com/svgjs" version="1.1" width="512" height="512" x="0" y="0" viewBox="0 0 512 512" style="enable-background:new 0 0 512 512" xml:space="preserve" class=""><g>
<g xmlns="http://www.w3.org/2000/svg">
	<g>
		<path d="M512,383.972V106.639c0-17.673-14.327-32-32-32H341.333V63.972c-0.04-35.346-28.727-63.967-64.073-63.927    c-7.243,0.008-14.432,1.246-21.26,3.66c-33.325-11.782-69.891,5.682-81.673,39.006c-2.414,6.829-3.652,14.017-3.66,21.26v10.667    H32c-17.673,0-32,14.327-32,32v277.333c0,17.673,14.327,32,32,32h160v26.56c-21.532,7.353-37.431,25.739-41.6,48.107H128v21.333    h256v-21.333h-22.4c-4.169-22.368-20.068-40.753-41.6-48.107v-26.56h80.747l12.373,20.587c1.696,2.838,4.611,4.729,7.893,5.12    h1.28c2.835,0.016,5.56-1.097,7.573-3.093l7.573-7.573l52.8,52.8l15.04-15.04l-52.907-52.8H480    C497.673,415.972,512,401.645,512,383.972z M341.333,95.972H480c5.891,0,10.667,4.776,10.667,10.667v192H392l-24.747-182.72    c-0.7-5.344-5.277-9.326-10.667-9.28h-15.253V95.972z M320,63.972v42.667h-21.333V63.972    c-0.019-15.506-5.666-30.478-15.893-42.133C303.99,24.566,319.907,42.582,320,63.972z M192,63.972    c0-23.564,19.103-42.667,42.667-42.667s42.667,19.103,42.667,42.667v42.667H192V63.972z M181.333,127.972h166.08l25.92,191.147    c-1.042,0.583-2.22,0.877-3.413,0.853H142.4c-1.265,0.057-2.52-0.238-3.627-0.853l25.813-191.147H181.333z M21.333,106.639    c0-5.891,4.776-10.667,10.667-10.667h138.667v10.667h-15.36c-5.389-0.046-9.966,3.936-10.667,9.28L120,298.639H21.333V106.639z     M339.627,490.639H172.373c3.733-12.8,15.253-32,51.627-32h32v-21.333h-32c-3.733,0-7.253,0-10.667,0v-21.333h85.333v21.333    c-3.413,0-6.933,0-10.667,0v21.333C324.373,458.639,335.893,477.839,339.627,490.639z M424.427,413.839l-16.32-27.093    l27.093,16.32L424.427,413.839z M457.92,391.759l-75.413-45.227c-5.069-3.002-11.611-1.326-14.613,3.742    c-1.985,3.352-1.985,7.519,0,10.871l20.053,33.493H32c-5.891,0-10.667-4.776-10.667-10.667v-64h96    c0.025,4.721,1.769,9.272,4.907,12.8c5.148,5.594,12.453,8.702,20.053,8.533h227.52c7.552,0.193,14.821-2.877,19.947-8.427    c3.171-3.55,4.918-8.147,4.907-12.907h96v64c0,5.891-4.776,10.667-10.667,10.667h-19.093    C460.109,393.493,459.094,392.514,457.92,391.759z" fill="#0028ff" data-original="#000000" style="" class=""/>
	</g>
</g>
<g xmlns="http://www.w3.org/2000/svg">
	<g>
		<rect x="42.667" y="351.972" width="21.333" height="21.333" fill="#0028ff" data-original="#000000" style="" class=""/>
	</g>
</g>
<g xmlns="http://www.w3.org/2000/svg">
	<g>
		<rect x="74.667" y="351.972" width="21.333" height="21.333" fill="#0028ff" data-original="#000000" style="" class=""/>
	</g>
</g>
<g xmlns="http://www.w3.org/2000/svg">
	<g>
		<rect x="106.667" y="351.972" width="21.333" height="21.333" fill="#0028ff" data-original="#000000" style="" class=""/>
	</g>
</g>
<g xmlns="http://www.w3.org/2000/svg">
	<g>
		<path d="M288,202.639v-21.333h-21.333v-10.667h-21.333v10.667h-10.667c-5.891,0-10.667,4.776-10.667,10.667v32    c0,5.891,4.776,10.667,10.667,10.667h32v10.667H224v21.333h21.333v10.667h21.333v-10.667h10.667    c5.891,0,10.667-4.776,10.667-10.667v-32c0-5.891-4.776-10.667-10.667-10.667h-32v-10.667H288z" fill="#0028ff" data-original="#000000" style="" class=""/>
	</g>
</g>
<g xmlns="http://www.w3.org/2000/svg">
	<g>
		<rect x="330.667" y="287.972" width="21.333" height="21.333" fill="#0028ff" data-original="#000000" style="" class=""/>
	</g>
</g>
<g xmlns="http://www.w3.org/2000/svg">
	<g>
		<path d="M458.667,117.305h-32v21.333H448v21.333h21.333v-32C469.333,122.081,464.558,117.305,458.667,117.305z" fill="#0028ff" data-original="#000000" style="" class=""/>
	</g>
</g>
<g xmlns="http://www.w3.org/2000/svg">
</g>
<g xmlns="http://www.w3.org/2000/svg">
</g>
<g xmlns="http://www.w3.org/2000/svg">
</g>
<g xmlns="http://www.w3.org/2000/svg">
</g>
<g xmlns="http://www.w3.org/2000/svg">
</g>
<g xmlns="http://www.w3.org/2000/svg">
</g>
<g xmlns="http://www.w3.org/2000/svg">
</g>
<g xmlns="http://www.w3.org/2000/svg">
</g>
<g xmlns="http://www.w3.org/2000/svg">
</g>
<g xmlns="http://www.w3.org/2000/svg">
</g>
<g xmlns="http://www.w3.org/2000/svg">
</g>
<g xmlns="http://www.w3.org/2000/svg">
</g>
<g xmlns="http://www.w3.org/2000/svg">
</g>
<g xmlns="http://www.w3.org/2000/svg">
</g>
<g xmlns="http://www.w3.org/2000/svg">
</g>
</g></svg>
