<?xml version="1.0"?>
<svg xmlns="http://www.w3.org/2000/svg" xmlns:xlink="http://www.w3.org/1999/xlink" xmlns:svgjs="http://svgjs.com/svgjs" version="1.1" width="512" height="512" x="0" y="0" viewBox="0 0 60 49" style="enable-background:new 0 0 512 512" xml:space="preserve"><g><g xmlns="http://www.w3.org/2000/svg" id="Page-1" fill="none" fill-rule="evenodd"><g id="075---Handshake" fill="rgb(0,0,0)" fill-rule="nonzero" transform="translate(-1 -1)"><path id="Shape" d="m48 50c6.4570255-.0131194 11.9257843-4.7635711 12.8420392-11.155271.9162549-6.3916998-2.9977323-12.487175-9.1910392-14.313729 1.378-1.294 1.8-1.449 7.849-4.942.6899013-.3975093 1.1934799-1.0529734 1.399805-1.8220035.2063252-.7690302.0984706-1.5885373-.299805-2.2779965l-7.5-12.989c-.3975093-.68990131-1.0529734-1.19347986-1.8220035-1.39980503-.7690302-.20632516-1.5885373-.09847059-2.2779965.29980503l-13.037 7.531-6.172-3.563c-1.9256219-1.11146093-4.2762995-1.19868945-6.279-.233-1.406163.67874066-3.0571467.61732961-4.409-.164-1.905-1.1-1.539-.893-6.106-3.53-.6904014-.39649574-1.5100955-.5022966-2.2785467-.29410017-.76845111.20819643-1.42262931.71331345-1.8184533 1.40410017l-1.036 1.8c-.27614237.47855474-.11205474 1.09035763.3665 1.3665s1.09035763.11205474 1.3665-.3665l1.037-1.8c.1311009-.23120357.3488501-.40070468.6051542-.47106634s.5300749-.03579466.7608458.09606634l3.464 2-8.5 14.724-3.464-2c-.22841593-.1322928-.39483238-.3500058-.46255324-.6051315-.06772086-.2551256-.03118425-.5267107.10155324-.7548685l4.1-7.09c.27169029-.47785996.10674157-1.08542045-.3693057-1.36027453-.47604726-.27485408-1.08468853-.11393908-1.3626943.36027453l-4.107 7.089c-.39827562.6894592-.50613019 1.5089663-.29980503 2.2779965.20632517.7690301.70990372 1.4244942 1.39980503 1.8220035 7.188 4.15 6.458 3.722 8.605 4.96-.7627224.753842-1.1337917 1.8181367-1.0050882 2.8827769.1287035 1.0646401.7427004 2.009851 1.6630882 2.5602231-.9201393 1.0060477-1.1689085 2.4563659-.6366309 3.7115428s1.7477842 2.0845458 3.1106309 2.1224572c-.0971393.9621886.2109583 1.9213495.8502528 2.646984.6392946.7256344 1.5519877 1.1521379 2.5187472 1.177016-.132106 1.3047305.4789917 2.5732549 1.5816273 3.2831623 1.1026355.7099074 2.5103355.7411409 3.6433727.0808377l12.219-7.059c-.2794247 3.6086237.9591616 7.1702312 3.4173768 9.826812 2.4582151 2.6565808 5.9131975 4.1672894 9.5326232 4.168188zm11-13c0 6.0751322-4.9248678 11-11 11s-11-4.9248678-11-11 4.9248678-11 11-11c6.0721626.0071635 10.9928365 4.9278374 11 11zm-9-33.865c.4775723-.27493779 1.0875642-.11170682 1.364.365l7.5 12.99c.2762972.4780185.1129053 1.0895071-.365 1.366l-3.464 2-8.5-14.721zm-28.168 38.2c-.7188767.4052595-1.6296883.1655956-2.056-.541-.4101778-.7097557-.1745966-1.6173447.529-2.038l13.445-7.763c.3119508-.1773616.5049532-.5082732.5057421-.8671183s-.1907567-.6906021-.5019247-.8693336c-.3111679-.1787314-.694247-.1770325-1.0038174.0044519l-14.29 8.25c-.7179702.4142135-1.6357864.1679701-2.0499999-.55-.4142136-.7179702-.1679702-1.6357864.5499999-2.05l14.29-8.25c.3119508-.1773616.5049532-.5082732.5057421-.8671183s-.1907567-.6906021-.5019247-.8693336c-.3111679-.1787314-.694247-.1770325-1.0038174.0044519-15.678 9.052-14.45 8.309-14.831 8.64-.436.079-.707.458-1.462.26-.58601-.157881-1.0191378-.6533286-1.0972975-1.25518s.2140523-1.1914956.7402975-1.49382l14.96-8.659c.4596821-.2843876.61017-.882589.3397768-1.3506397s-.8637835-.6365131-1.3397768-.3803603l-13.266 7.676c-.5262836.2795261-1.1678562.2226794-1.6367916-.1450282-.4689353-.3677076-.6771529-.9772093-.5312084-1.5549718.1015224-.3856045.3537566-.7142297.7-.912l5.824-3.354c.3095706-.1786328.5003262-.5088503.500411-.8662627s-.1905141-.6877204-.5-.8665c-.3094858-.1787796-.6908404-.1788701-1.000411-.0002373l-4.679 2.7-4.271-2.467 8.5-14.719.908.524c1.9257534 1.11074263 4.2759148 1.19832629 6.279.234 1.4058661-.68015805 3.0575481-.61872102 4.409.164 20 11.545 18.632 10.666 18.526 10.838-1.1313974 1.8455578-3.5301623 2.4488028-5.4 1.358l-12.1-6.985c-.2298902-.1328368-.5031703-.1687968-.759599-.0999532-.2564286.0688437-.4749527.236839-.607401.4669532-1.071 1.873-2.181 3.919-4.355 4.509-1.726.47-3.937-.062-6.571-1.583-.4785547-.2761424-1.0903576-.1120547-1.3665.3665s-.1120547 1.0903576.3665 1.3665c3.113 1.8 5.839 2.395 8.1 1.78 2.662-.726 4.1-2.906 5.065-4.573l11.228 6.482c5.172 2.988 10.776-3.012 7.465-4.927l-10.424-6.016 6.837-3.951 8.5 14.724c-1.5024988.831986-2.8499784 1.9172771-3.983 3.208-6.2608242-.6291926-12.0745085 3.3128449-13.807 9.362z" fill="#ffffff" data-original="#000000" style=""/><path id="Shape" d="m41.707 38.293c-.3923789-.3789722-1.0160848-.3735524-1.4018186.0121814s-.3911536 1.0094397-.0121814 1.4018186l4 4c.3904999.3903819 1.0235001.3903819 1.414 0l10-10c.3789722-.3923789.3735524-1.0160848-.0121814-1.4018186s-1.0094397-.3911536-1.4018186-.0121814l-9.293 9.293z" fill="#ffffff" data-original="#000000" style=""/></g></g></g></svg>
