<?xml version="1.0"?>
<svg xmlns="http://www.w3.org/2000/svg" xmlns:xlink="http://www.w3.org/1999/xlink" xmlns:svgjs="http://svgjs.com/svgjs" version="1.1" width="512" height="512" x="0" y="0" viewBox="0 0 511.766 511.766" style="enable-background:new 0 0 512 512" xml:space="preserve"><g>
<g xmlns="http://www.w3.org/2000/svg">
	<g>
		<path d="M48.216,199.908h-0.078c-2.209,0-3.959,1.789-3.959,3.999c0,2.209,1.831,3.998,4.037,3.998    c2.21,0,3.999-1.789,3.999-3.998C52.215,201.697,50.426,199.908,48.216,199.908z" fill="#ffffff" data-original="#000000" style=""/>
	</g>
</g>
<g xmlns="http://www.w3.org/2000/svg">
	<g>
		<path d="M64.208,199.908H64.13c-2.21,0-3.959,1.789-3.959,3.999c0,2.209,1.831,3.998,4.037,3.998c2.21,0,3.998-1.789,3.998-3.998    C68.207,201.697,66.419,199.908,64.208,199.908z" fill="#ffffff" data-original="#000000" style=""/>
	</g>
</g>
<g xmlns="http://www.w3.org/2000/svg">
	<g>
		<path d="M80.201,199.908h-0.078c-2.209,0-3.959,1.789-3.959,3.999c0,2.209,1.832,3.998,4.038,3.998    c2.209,0,3.998-1.789,3.997-3.998C84.198,201.697,82.409,199.908,80.201,199.908z" fill="#ffffff" data-original="#000000" style=""/>
	</g>
</g>
<g xmlns="http://www.w3.org/2000/svg">
	<g>
		<path d="M439.799,191.912H39.982c-6.614,0-11.994,5.381-11.994,11.995v7.997c0,2.209,1.788,3.998,3.998,3.998h415.809    c2.21,0,3.998-1.789,3.998-3.998v-7.997C451.792,197.292,446.413,191.912,439.799,191.912z M443.797,207.905H35.984v-3.998    c0-2.203,1.792-3.999,3.998-3.999h399.817c2.171,0,3.998,1.828,3.998,3.999V207.905z" fill="#ffffff" data-original="#000000" style=""/>
	</g>
</g>
<g xmlns="http://www.w3.org/2000/svg">
	<g>
		<path d="M447.794,207.905c-2.21,0-3.998,1.789-3.998,3.999v135.937c0,2.21,1.788,3.998,3.998,3.998    c2.21,0,3.998-1.788,3.998-3.997V211.904C451.792,209.694,450.005,207.905,447.794,207.905z" fill="#ffffff" data-original="#000000" style=""/>
	</g>
</g>
<g xmlns="http://www.w3.org/2000/svg">
	<g>
		<path d="M31.986,207.905c-2.21,0-3.998,1.789-3.998,3.999v255.882c0,2.21,1.788,3.998,3.998,3.998    c2.209,0,3.998-1.788,3.998-3.997V211.904C35.984,209.694,34.195,207.905,31.986,207.905z" fill="#ffffff" data-original="#000000" style=""/>
	</g>
</g>
<g xmlns="http://www.w3.org/2000/svg">
	<g>
		<path d="M335.846,463.787H31.986c-2.21,0-3.998,1.789-3.998,3.999c0,2.21,1.788,3.998,3.998,3.998h303.86    c2.211,0,3.999-1.788,3.999-3.998C339.844,465.576,338.057,463.787,335.846,463.787z" fill="#ffffff" data-original="#000000" style=""/>
	</g>
</g>
<g xmlns="http://www.w3.org/2000/svg">
	<g>
		<path d="M219.288,433.684l-39.981-63.971c-1.46-2.343-5.318-2.343-6.778,0l-39.981,63.971c-1.171,1.866-0.601,4.334,1.269,5.505    c1.874,1.18,4.346,0.61,5.51-1.272l36.592-58.544l36.592,58.544c0.758,1.218,2.062,1.882,3.394,1.882    c0.723,0,1.457-0.195,2.114-0.61C219.89,438.018,220.46,435.55,219.288,433.684z" fill="#ffffff" data-original="#000000" style=""/>
	</g>
</g>
<g xmlns="http://www.w3.org/2000/svg">
	<g>
		<path d="M146.768,421.409l-19.437-27.877c-0.745-1.07-1.967-1.711-3.271-1.711c-0.004,0-0.004,0-0.008,0    c-1.3,0-2.522,0.633-3.272,1.703l-28.096,39.981c-1.269,1.803-0.832,4.295,0.972,5.567c0.699,0.493,1.503,0.727,2.296,0.727    c1.258,0,2.495-0.594,3.276-1.702l24.813-35.304l16.168,23.192c1.257,1.812,3.748,2.249,5.568,0.992    C147.588,425.712,148.029,423.221,146.768,421.409z" fill="#ffffff" data-original="#000000" style=""/>
	</g>
</g>
<g xmlns="http://www.w3.org/2000/svg">
	<g>
		<path d="M415.81,239.89H63.971c-2.21,0-3.998,1.789-3.998,3.999v63.971c0,2.21,1.788,3.998,3.998,3.998H415.81    c2.21,0,3.998-1.788,3.998-3.998v-63.971C419.807,241.679,418.02,239.89,415.81,239.89z M411.812,303.862H67.969v-55.975h343.843    V303.862z" fill="#ffffff" data-original="#000000" style=""/>
	</g>
</g>
<g xmlns="http://www.w3.org/2000/svg">
	<g>
		<path d="M223.898,327.85H63.971c-2.21,0-3.998,1.789-3.998,3.998v103.953c0,2.21,1.788,3.998,3.998,3.998h159.927    c2.21,0,3.998-1.788,3.998-3.998V331.848C227.896,329.639,226.108,327.85,223.898,327.85z M219.9,431.803H67.969v-95.957H219.9    V431.803z" fill="#ffffff" data-original="#000000" style=""/>
	</g>
</g>
<g xmlns="http://www.w3.org/2000/svg">
	<g>
		<path d="M91.958,343.843c-8.82,0-15.993,7.177-15.993,15.992c0,8.816,7.173,15.993,15.993,15.993    c8.821,0,15.992-7.176,15.992-15.993C107.95,351.02,100.778,343.843,91.958,343.843z M91.958,367.832    c-4.409,0-7.997-3.585-7.997-7.997s3.589-7.996,7.997-7.996s7.996,3.584,7.996,7.996    C99.953,364.247,96.367,367.832,91.958,367.832z" fill="#ffffff" data-original="#000000" style=""/>
	</g>
</g>
<g xmlns="http://www.w3.org/2000/svg">
	<g>
		<path d="M415.81,343.843H255.883c-2.21,0-3.998,1.788-3.998,3.998c0,2.21,1.788,3.998,3.998,3.998H415.81    c2.21,0,3.998-1.788,3.998-3.998C419.807,345.631,418.02,343.843,415.81,343.843z" fill="#ffffff" data-original="#000000" style=""/>
	</g>
</g>
<g xmlns="http://www.w3.org/2000/svg">
	<g>
		<path d="M351.839,367.832h-95.956c-2.21,0-3.998,1.788-3.998,3.998c0,2.21,1.788,3.998,3.998,3.998h95.956    c2.21,0,3.998-1.788,3.998-3.998C355.836,369.62,354.049,367.832,351.839,367.832z" fill="#ffffff" data-original="#000000" style=""/>
	</g>
</g>
<g xmlns="http://www.w3.org/2000/svg">
	<g>
		<path d="M335.846,391.821h-79.963c-2.21,0-3.998,1.789-3.998,3.998c0,2.211,1.788,3.998,3.998,3.998h79.963    c2.211,0,3.999-1.788,3.999-3.998C339.845,393.61,338.057,391.821,335.846,391.821z" fill="#ffffff" data-original="#000000" style=""/>
	</g>
</g>
<g xmlns="http://www.w3.org/2000/svg">
	<g>
		<path d="M327.85,415.81h-71.967c-2.21,0-3.998,1.788-3.998,3.998c0,2.21,1.788,3.998,3.998,3.998h71.967    c2.21,0,3.998-1.788,3.998-3.998C331.848,417.598,330.06,415.81,327.85,415.81z" fill="#ffffff" data-original="#000000" style=""/>
	</g>
</g>
<g xmlns="http://www.w3.org/2000/svg">
	<g>
		<path d="M375.828,263.879H103.952c-2.21,0-3.998,1.789-3.998,3.998c0,2.21,1.788,3.998,3.998,3.998h271.876    c2.21,0,3.998-1.788,3.998-3.998C379.826,265.668,378.038,263.879,375.828,263.879z" fill="#ffffff" data-original="#000000" style=""/>
	</g>
</g>
<g xmlns="http://www.w3.org/2000/svg">
	<g>
		<path d="M327.85,279.872H151.931c-2.21,0-3.998,1.788-3.998,3.998c0,2.21,1.788,3.998,3.998,3.998H327.85    c2.21,0,3.998-1.788,3.998-3.998C331.848,281.66,330.06,279.872,327.85,279.872z" fill="#ffffff" data-original="#000000" style=""/>
	</g>
</g>
<g xmlns="http://www.w3.org/2000/svg">
	<g>
		<path d="M119.938,59.974c-15.95,0-27.979,12.877-27.979,29.947c0,17.203,16.019,34.023,27.979,34.023    c11.963,0,27.995-16.821,27.995-34.023C147.932,72.851,135.898,59.974,119.938,59.974z M119.938,115.947    c-6.411,0-19.983-12.315-19.983-26.027c0-12.721,8.402-21.951,19.983-21.951c11.588,0,19.998,9.23,19.999,21.951    C139.937,103.898,126.525,115.947,119.938,115.947z" fill="#ffffff" data-original="#000000" style=""/>
	</g>
</g>
<g xmlns="http://www.w3.org/2000/svg">
	<g>
		<path d="M155.643,125.841c-6.431-2.523-14.13-6.068-16.098-7.622c-0.644-1.343-2.019-2.272-3.608-2.272    c-2.21,0-3.998,1.789-3.998,3.999c0,2.303,0,5.177,20.776,13.345c0.48,0.188,0.976,0.273,1.464,0.273    c1.593,0,3.099-0.96,3.721-2.538C158.708,128.972,157.698,126.653,155.643,125.841z" fill="#ffffff" data-original="#000000" style=""/>
	</g>
</g>
<g xmlns="http://www.w3.org/2000/svg">
	<g>
		<path d="M135.938,106.124c-2.21,0-3.998,1.789-3.998,3.998v9.824c0,2.21,1.788,3.998,3.998,3.998s3.998-1.789,3.999-3.998v-9.824    C139.937,107.913,138.148,106.124,135.938,106.124z" fill="#ffffff" data-original="#000000" style=""/>
	</g>
</g>
<g xmlns="http://www.w3.org/2000/svg">
	<g>
		<path d="M103.952,115.947c-1.588,0-2.962,0.929-3.607,2.272c-1.968,1.555-9.667,5.1-16.098,7.622    c-2.054,0.812-3.065,3.131-2.257,5.185c0.62,1.578,2.128,2.538,3.721,2.538c0.488,0,0.984-0.086,1.464-0.273    c20.775-8.168,20.775-11.041,20.775-13.345C107.95,117.736,106.161,115.947,103.952,115.947z" fill="#ffffff" data-original="#000000" style=""/>
	</g>
</g>
<g xmlns="http://www.w3.org/2000/svg">
	<g>
		<path d="M103.952,106.124c-2.21,0-3.998,1.789-3.998,3.998v9.824c0,2.21,1.788,3.998,3.998,3.998c2.21,0,3.998-1.789,3.998-3.998    v-9.824C107.95,107.913,106.161,106.124,103.952,106.124z" fill="#ffffff" data-original="#000000" style=""/>
	</g>
</g>
<g xmlns="http://www.w3.org/2000/svg">
	<g>
		<path d="M119.945,43.979c-28.66,0-51.977,23.318-51.977,51.977s23.318,51.977,51.977,51.977s51.976-23.318,51.976-51.977    S148.603,43.979,119.945,43.979z M119.945,139.936c-24.251,0-43.98-19.733-43.98-43.98s19.729-43.98,43.98-43.98    c24.251,0,43.979,19.733,43.979,43.98S144.195,139.936,119.945,139.936z" fill="#ffffff" data-original="#000000" style=""/>
	</g>
</g>
<g xmlns="http://www.w3.org/2000/svg">
	<g>
		<path d="M359.827,59.974c-15.953,0-27.979,12.877-27.979,29.947c0,17.203,16.024,34.023,27.979,34.023    c11.964,0,27.995-16.821,27.995-34.023C387.822,72.851,375.789,59.974,359.827,59.974z M359.827,115.947    c-6.411,0-19.982-12.315-19.982-26.027c0-12.721,8.402-21.951,19.982-21.951c11.589,0,19.999,9.23,19.999,21.951    C379.826,103.898,366.41,115.947,359.827,115.947z" fill="#ffffff" data-original="#000000" style=""/>
	</g>
</g>
<g xmlns="http://www.w3.org/2000/svg">
	<g>
		<path d="M395.53,125.841c-6.426-2.523-14.126-6.068-16.094-7.622c-0.648-1.343-2.014-2.272-3.607-2.272    c-2.21,0-3.998,1.789-3.998,3.999c0,2.303,0,5.177,20.779,13.345c0.477,0.188,0.977,0.273,1.46,0.273    c1.592,0,3.1-0.96,3.726-2.538C398.599,128.972,397.585,126.653,395.53,125.841z" fill="#ffffff" data-original="#000000" style=""/>
	</g>
</g>
<g xmlns="http://www.w3.org/2000/svg">
	<g>
		<path d="M375.828,106.124c-2.21,0-3.998,1.789-3.998,3.998v9.824c0,2.21,1.788,3.998,3.998,3.998c2.21,0,3.998-1.789,3.998-3.998    v-9.824C379.826,107.913,378.038,106.124,375.828,106.124z" fill="#ffffff" data-original="#000000" style=""/>
	</g>
</g>
<g xmlns="http://www.w3.org/2000/svg">
	<g>
		<path d="M343.843,115.947c-1.592,0-2.96,0.929-3.608,2.272c-1.967,1.555-9.667,5.1-16.094,7.622    c-2.054,0.812-3.069,3.131-2.265,5.185c0.625,1.578,2.132,2.538,3.725,2.538c0.484,0,0.984-0.086,1.461-0.273    c20.779-8.168,20.779-11.041,20.779-13.345C347.841,117.736,346.052,115.947,343.843,115.947z" fill="#ffffff" data-original="#000000" style=""/>
	</g>
</g>
<g xmlns="http://www.w3.org/2000/svg">
	<g>
		<path d="M343.843,106.124c-2.21,0-3.998,1.789-3.998,3.998v9.824c0,2.21,1.788,3.998,3.998,3.998s3.998-1.789,3.998-3.998v-9.824    C347.841,107.913,346.052,106.124,343.843,106.124z" fill="#ffffff" data-original="#000000" style=""/>
	</g>
</g>
<g xmlns="http://www.w3.org/2000/svg">
	<g>
		<path d="M359.835,43.979c-28.659,0-51.976,23.318-51.976,51.977s23.318,51.977,51.976,51.977    c28.659,0,51.977-23.318,51.977-51.977S388.494,43.979,359.835,43.979z M359.835,139.936c-24.246,0-43.979-19.733-43.979-43.98    s19.733-43.98,43.979-43.98c24.247,0,43.98,19.733,43.98,43.98S384.082,139.936,359.835,139.936z" fill="#ffffff" data-original="#000000" style=""/>
	</g>
</g>
<g xmlns="http://www.w3.org/2000/svg">
	<g>
		<path d="M239.883,15.994c-15.95,0-27.979,12.877-27.979,29.947c0,17.202,16.02,34.023,27.979,34.023    c11.963,0,27.994-16.821,27.995-34.023C267.878,28.871,255.844,15.994,239.883,15.994z M239.883,71.967    c-6.411,0-19.983-12.315-19.983-26.027c0-12.721,8.402-21.951,19.983-21.951c11.588,0,19.998,9.23,19.999,21.951    C259.882,59.918,246.47,71.967,239.883,71.967z" fill="#ffffff" data-original="#000000" style=""/>
	</g>
</g>
<g xmlns="http://www.w3.org/2000/svg">
	<g>
		<path d="M275.585,81.861c-6.427-2.522-14.126-6.068-16.095-7.622c-0.643-1.342-2.018-2.272-3.607-2.272    c-2.21,0-3.998,1.789-3.998,3.998c0,2.304,0,5.178,20.779,13.346c0.477,0.187,0.977,0.273,1.461,0.273    c1.593,0,3.1-0.96,3.725-2.538C278.653,84.992,277.638,82.673,275.585,81.861z" fill="#ffffff" data-original="#000000" style=""/>
	</g>
</g>
<g xmlns="http://www.w3.org/2000/svg">
	<g>
		<path d="M255.883,62.144c-2.21,0-3.998,1.788-3.998,3.998v9.823c0,2.21,1.788,3.999,3.998,3.999s3.998-1.789,3.998-3.999v-9.823    C259.88,63.932,258.093,62.144,255.883,62.144z" fill="#ffffff" data-original="#000000" style=""/>
	</g>
</g>
<g xmlns="http://www.w3.org/2000/svg">
	<g>
		<path d="M223.898,71.967c-1.588,0-2.963,0.929-3.607,2.272c-1.968,1.555-9.668,5.1-16.099,7.622    c-2.054,0.812-3.065,3.131-2.257,5.185c0.621,1.578,2.128,2.538,3.721,2.538c0.488,0,0.984-0.086,1.465-0.273    c20.775-8.168,20.775-11.042,20.775-13.346C227.896,73.756,226.108,71.967,223.898,71.967z" fill="#ffffff" data-original="#000000" style=""/>
	</g>
</g>
<g xmlns="http://www.w3.org/2000/svg">
	<g>
		<path d="M223.898,62.144c-2.21,0-3.998,1.788-3.998,3.998v9.823c0,2.21,1.788,3.999,3.998,3.999s3.998-1.789,3.998-3.999v-9.823    C227.896,63.932,226.108,62.144,223.898,62.144z" fill="#ffffff" data-original="#000000" style=""/>
	</g>
</g>
<g xmlns="http://www.w3.org/2000/svg">
	<g>
		<path d="M239.89,0c-28.659,0-51.976,23.317-51.976,51.976s23.317,51.976,51.976,51.976s51.976-23.317,51.976-51.976    S268.549,0,239.89,0z M239.89,95.956c-24.251,0-43.98-19.733-43.98-43.98c0-24.247,19.73-43.98,43.98-43.98    c24.247,0,43.98,19.733,43.98,43.98C283.87,76.223,264.137,95.956,239.89,95.956z" fill="#ffffff" data-original="#000000" style=""/>
	</g>
</g>
<g xmlns="http://www.w3.org/2000/svg">
	<g>
		<path d="M314.98,137.437c-1.374-1.719-3.881-1.992-5.622-0.625l-39.981,31.97c-1.727,1.382-1.999,3.896-0.625,5.622    c0.789,0.985,1.952,1.5,3.123,1.5c0.875,0,1.758-0.289,2.499-0.874l39.981-31.97C316.082,141.677,316.355,139.163,314.98,137.437z    " fill="#ffffff" data-original="#000000" style=""/>
	</g>
</g>
<g xmlns="http://www.w3.org/2000/svg">
	<g>
		<path d="M271.875,159.927c-2.209,0-3.998,1.788-3.998,3.998v7.981c0,2.209,1.789,3.998,3.998,3.998    c2.211,0,3.999-1.789,3.999-3.998v-7.981C275.874,161.715,274.086,159.927,271.875,159.927z" fill="#ffffff" data-original="#000000" style=""/>
	</g>
</g>
<g xmlns="http://www.w3.org/2000/svg">
	<g>
		<path d="M279.872,167.923h-7.997c-2.209,0-3.998,1.789-3.998,3.999c0,2.209,1.789,3.998,3.998,3.998h7.997    c2.21,0,3.998-1.789,3.998-3.998C283.87,169.712,282.082,167.923,279.872,167.923z" fill="#ffffff" data-original="#000000" style=""/>
	</g>
</g>
<g xmlns="http://www.w3.org/2000/svg">
	<g>
		<path d="M210.398,168.781l-39.981-31.97c-1.714-1.366-4.236-1.093-5.618,0.625c-1.379,1.727-1.098,4.241,0.628,5.623l39.982,31.97    c0.734,0.586,1.616,0.875,2.491,0.875c1.175,0,2.339-0.515,3.127-1.501C212.406,172.677,212.125,170.163,210.398,168.781z" fill="#ffffff" data-original="#000000" style=""/>
	</g>
</g>
<g xmlns="http://www.w3.org/2000/svg">
	<g>
		<path d="M207.905,159.927c-2.21,0-3.998,1.788-3.998,3.998v7.981c0,2.209,1.788,3.998,3.998,3.998c2.21,0,3.999-1.789,3.999-3.998    v-7.981C211.904,161.715,210.115,159.927,207.905,159.927z" fill="#ffffff" data-original="#000000" style=""/>
	</g>
</g>
<g xmlns="http://www.w3.org/2000/svg">
	<g>
		<path d="M207.905,167.923h-7.997c-2.21,0-3.998,1.789-3.998,3.999c0,2.209,1.788,3.998,3.998,3.998h7.997    c2.21,0,3.999-1.789,3.999-3.998C211.904,169.712,210.115,167.923,207.905,167.923z" fill="#ffffff" data-original="#000000" style=""/>
	</g>
</g>
<g xmlns="http://www.w3.org/2000/svg">
	<g>
		<path d="M239.89,111.949c-2.21,0-3.998,1.789-3.998,3.998v47.97c0,2.21,1.788,3.998,3.998,3.998c2.21,0,3.999-1.788,3.999-3.998    v-47.97C243.888,113.738,242.1,111.949,239.89,111.949z" fill="#ffffff" data-original="#000000" style=""/>
	</g>
</g>
<g xmlns="http://www.w3.org/2000/svg">
	<g>
		<path d="M248.378,155.428c-1.562-1.562-4.092-1.562-5.654,0l-5.661,5.662c-1.562,1.562-1.562,4.092,0,5.654    c0.781,0.781,1.804,1.171,2.827,1.171s2.046-0.39,2.826-1.171l5.662-5.662C249.94,159.52,249.94,156.99,248.378,155.428z" fill="#ffffff" data-original="#000000" style=""/>
	</g>
</g>
<g xmlns="http://www.w3.org/2000/svg">
	<g>
		<path d="M242.716,161.09l-5.661-5.662c-1.562-1.562-4.092-1.562-5.654,0s-1.562,4.092,0,5.654l5.662,5.662    c0.781,0.781,1.804,1.171,2.827,1.171s2.046-0.39,2.826-1.171C244.278,165.182,244.278,162.652,242.716,161.09z" fill="#ffffff" data-original="#000000" style=""/>
	</g>
</g>
<g xmlns="http://www.w3.org/2000/svg">
	<g>
		<path d="M415.81,359.835c-37.475,0-67.969,30.494-67.969,67.97c0,37.475,30.494,67.969,67.969,67.969    c37.475,0,67.969-30.495,67.969-67.969C483.779,390.329,453.286,359.835,415.81,359.835z M415.81,487.777    c-33.072,0-59.973-26.902-59.973-59.972c0-33.072,26.902-59.973,59.973-59.973s59.972,26.902,59.973,59.973    C475.783,460.876,448.882,487.777,415.81,487.777z" fill="#ffffff" data-original="#000000" style=""/>
	</g>
</g>
<g xmlns="http://www.w3.org/2000/svg">
	<g>
		<path d="M479.78,439.799c-2.21,0-3.998,1.788-3.998,3.998c0,33.071-26.901,59.973-59.973,59.973    c-33.072,0-59.973-26.903-59.973-59.973c0-2.21-1.788-3.998-3.998-3.998c-2.21,0-3.998,1.788-3.998,3.998    c0,37.475,30.494,67.969,67.969,67.969c37.475,0,67.969-30.494,67.969-67.969C483.778,441.587,481.99,439.799,479.78,439.799z" fill="#ffffff" data-original="#000000" style=""/>
	</g>
</g>
<g xmlns="http://www.w3.org/2000/svg">
	<g>
		<path d="M351.839,423.806c-2.21,0-3.998,1.788-3.998,3.999v15.992c0,2.21,1.788,3.998,3.998,3.998c2.21,0,3.998-1.788,3.998-3.998    v-15.992C355.836,425.594,354.049,423.806,351.839,423.806z" fill="#ffffff" data-original="#000000" style=""/>
	</g>
</g>
<g xmlns="http://www.w3.org/2000/svg">
	<g>
		<path d="M479.78,423.806c-2.21,0-3.998,1.788-3.998,3.999v15.992c0,2.21,1.788,3.998,3.998,3.998c2.21,0,3.999-1.788,3.998-3.998    v-15.992C483.778,425.594,481.99,423.806,479.78,423.806z" fill="#ffffff" data-original="#000000" style=""/>
	</g>
</g>
<g xmlns="http://www.w3.org/2000/svg">
	<g>
		<path d="M415.81,399.816c-2.21,0-3.998,1.789-3.998,3.999v47.978c0,2.21,1.788,3.998,3.998,3.998c2.21,0,3.998-1.788,3.998-3.998    v-47.978C419.807,401.605,418.02,399.816,415.81,399.816z" fill="#ffffff" data-original="#000000" style=""/>
	</g>
</g>
<g xmlns="http://www.w3.org/2000/svg">
	<g>
		<path d="M415.81,487.777c-2.21,0-3.998,1.788-3.998,3.999v15.992c0,2.21,1.788,3.998,3.998,3.998c2.21,0,3.998-1.788,3.998-3.998    v-15.992C419.807,489.565,418.02,487.777,415.81,487.777z" fill="#ffffff" data-original="#000000" style=""/>
	</g>
</g>
<g xmlns="http://www.w3.org/2000/svg">
	<g>
		<path d="M447.794,479.218c-2.21,0-3.998,1.788-3.998,3.999v15.992c0,2.21,1.788,3.998,3.998,3.998c2.21,0,3.998-1.788,3.998-3.998    v-15.992C451.792,481.006,450.005,479.218,447.794,479.218z" fill="#ffffff" data-original="#000000" style=""/>
	</g>
</g>
<g xmlns="http://www.w3.org/2000/svg">
	<g>
		<path d="M383.824,479.218c-2.21,0-3.998,1.788-3.998,3.999v15.992c0,2.21,1.788,3.998,3.998,3.998c2.21,0,3.998-1.788,3.998-3.998    v-15.992C387.822,481.006,386.034,479.218,383.824,479.218z" fill="#ffffff" data-original="#000000" style=""/>
	</g>
</g>
<g xmlns="http://www.w3.org/2000/svg">
</g>
<g xmlns="http://www.w3.org/2000/svg">
</g>
<g xmlns="http://www.w3.org/2000/svg">
</g>
<g xmlns="http://www.w3.org/2000/svg">
</g>
<g xmlns="http://www.w3.org/2000/svg">
</g>
<g xmlns="http://www.w3.org/2000/svg">
</g>
<g xmlns="http://www.w3.org/2000/svg">
</g>
<g xmlns="http://www.w3.org/2000/svg">
</g>
<g xmlns="http://www.w3.org/2000/svg">
</g>
<g xmlns="http://www.w3.org/2000/svg">
</g>
<g xmlns="http://www.w3.org/2000/svg">
</g>
<g xmlns="http://www.w3.org/2000/svg">
</g>
<g xmlns="http://www.w3.org/2000/svg">
</g>
<g xmlns="http://www.w3.org/2000/svg">
</g>
<g xmlns="http://www.w3.org/2000/svg">
</g>
</g></svg>
