<?xml version="1.0"?>
<svg xmlns="http://www.w3.org/2000/svg" xmlns:xlink="http://www.w3.org/1999/xlink" xmlns:svgjs="http://svgjs.com/svgjs" version="1.1" width="512" height="512" x="0" y="0" viewBox="0 0 64 64" style="enable-background:new 0 0 512 512" xml:space="preserve" class=""><g><g xmlns="http://www.w3.org/2000/svg" id="Outline"><g><path d="M3,29a1,1,0,0,0,1-1V12H52a1,1,0,0,0,0-2H20V4H55V35.029a1,1,0,0,0,2,0V3a1,1,0,0,0-1-1H3A1,1,0,0,0,2,3V28A1,1,0,0,0,3,29ZM4,4H18v6H4Z" fill="#ffffff" data-original="#000000" style="" class=""/><circle cx="7" cy="7" r="1" fill="#ffffff" data-original="#000000" style="" class=""/><circle cx="11" cy="7" r="1" fill="#ffffff" data-original="#000000" style="" class=""/><circle cx="15" cy="7" r="1" fill="#ffffff" data-original="#000000" style="" class=""/><path d="M25,6a1,1,0,0,0,0,2H37a1,1,0,0,0,0-2Z" fill="#ffffff" data-original="#000000" style="" class=""/><path d="M42,6a1,1,0,0,0,0,2h8a1,1,0,0,0,0-2Z" fill="#ffffff" data-original="#000000" style="" class=""/><path d="M49,43a6,6,0,1,0,4.242,1.758A5.956,5.956,0,0,0,49,43Zm2.828,8.828a4.093,4.093,0,0,1-5.656,0,4,4,0,1,1,5.656,0Z" fill="#ffffff" data-original="#000000" style="" class=""/><path d="M61,45H59.244c-.055-.142-.111-.28-.171-.417l1.24-1.24a1,1,0,0,0,0-1.414l-4.242-4.242a1,1,0,0,0-1.414,0l-1.24,1.24c-.137-.06-.275-.116-.417-.171V37a1,1,0,0,0-1-1H46a1,1,0,0,0-1,1v1.756c-.142.055-.28.111-.417.171l-1.24-1.24a1,1,0,0,0-1.414,0l-4.242,4.242a1,1,0,0,0,0,1.414l1.24,1.24c-.06.137-.116.275-.171.417H37a1,1,0,0,0-1,1v6a1,1,0,0,0,1,1h1.756c.055.142.111.28.171.417l-1.24,1.24a1,1,0,0,0-.223.343H4V40H37a1,1,0,0,0,1-1V15a1,1,0,0,0-2,0V38H4V32a1,1,0,0,0-2,0V56a1,1,0,0,0,1,1H38.615l3.314,3.313a1,1,0,0,0,1.414,0l1.24-1.24c.137.06.275.116.417.171V61a1,1,0,0,0,1,1h6a1,1,0,0,0,1-1V59.244c.142-.055.28-.111.417-.171l1.24,1.24a1,1,0,0,0,1.414,0L57.485,58.9a1,1,0,0,0-1.414-1.414l-.707.707L54.332,57.16a1,1,0,0,0-1.171-.179,8.831,8.831,0,0,1-1.46.6,1,1,0,0,0-.7.954V60H47V58.535a1,1,0,0,0-.7-.954,8.823,8.823,0,0,1-1.461-.6,1,1,0,0,0-1.171.179l-1.032,1.032-2.828-2.828,1.032-1.032a1,1,0,0,0,.179-1.171,8.823,8.823,0,0,1-.6-1.461,1,1,0,0,0-.954-.7H38V47h1.466a1,1,0,0,0,.954-.7,8.831,8.831,0,0,1,.6-1.46,1,1,0,0,0-.179-1.171l-1.032-1.032,2.828-2.828,1.032,1.032a1,1,0,0,0,1.171.179,8.831,8.831,0,0,1,1.46-.6,1,1,0,0,0,.7-.954V38h4v1.465a1,1,0,0,0,.7.954,8.823,8.823,0,0,1,1.461.6,1,1,0,0,0,1.171-.179l1.032-1.032,2.828,2.828L57.16,43.668a1,1,0,0,0-.179,1.171,8.823,8.823,0,0,1,.6,1.461,1,1,0,0,0,.954.7H60v4H58.534a1,1,0,0,0-.954.7,8.831,8.831,0,0,1-.6,1.46,1,1,0,0,0,.179,1.171L58.9,56.071a1,1,0,0,0,1.414-1.414l-1.24-1.24c.06-.137.116-.275.171-.417H61a1,1,0,0,0,1-1V46A1,1,0,0,0,61,45Z" fill="#ffffff" data-original="#000000" style="" class=""/><path d="M29,43H13a1,1,0,0,0,0,2H29a1,1,0,0,0,0-2Z" fill="#ffffff" data-original="#000000" style="" class=""/><path d="M30,48a1,1,0,0,0-1-1H8a1,1,0,0,0,0,2H29A1,1,0,0,0,30,48Z" fill="#ffffff" data-original="#000000" style="" class=""/><path d="M8,51a1,1,0,0,0,0,2H22a1,1,0,0,0,0-2Z" fill="#ffffff" data-original="#000000" style="" class=""/><path d="M28,19a1,1,0,0,0,.554-.168l3-2a1,1,0,1,0-1.11-1.664l-3,2A1,1,0,0,0,28,19Z" fill="#ffffff" data-original="#000000" style="" class=""/><path d="M33,23a1,1,0,0,0-1-1H28a1,1,0,0,0,0,2h4A1,1,0,0,0,33,23Z" fill="#ffffff" data-original="#000000" style="" class=""/><path d="M27.168,27.445a1,1,0,0,0,.277,1.387l3,2a1,1,0,1,0,1.11-1.664l-3-2A1,1,0,0,0,27.168,27.445Z" fill="#ffffff" data-original="#000000" style="" class=""/><path d="M24,23a1,1,0,0,0,1-1V16a1,1,0,0,0-1.447-.895l-.634.317A24.545,24.545,0,0,1,12,18a4.991,4.991,0,0,0-.8,9.919l1.464,5.853a2.94,2.94,0,1,0,5.7-1.425l-.932-3.726a24.506,24.506,0,0,1,5.484,1.957l.633.317A1,1,0,0,0,25,30V26a1,1,0,0,0-2,0v2.4a26.594,26.594,0,0,0-6.747-2.043l-.029-.005A26.246,26.246,0,0,0,13,26.02V19.98A26.566,26.566,0,0,0,23,17.6V22A1,1,0,0,0,24,23ZM9,23a3.006,3.006,0,0,1,2-2.829v5.658A3.006,3.006,0,0,1,9,23Zm7.427,9.831a.94.94,0,1,1-1.824.457l-1.313-5.25c.665.036,1.327.1,1.987.194Z" fill="#ffffff" data-original="#000000" style="" class=""/><path d="M48,15a1,1,0,0,0-1-1H41a1,1,0,0,0-1,1v6a1,1,0,0,0,1,1h6a1,1,0,0,0,1-1Zm-2,5H42V16h4Z" fill="#ffffff" data-original="#000000" style="" class=""/><path d="M47,25H41a1,1,0,0,0-1,1v6a1,1,0,0,0,1,1h6a1,1,0,0,0,1-1V26A1,1,0,0,0,47,25Zm-1,6H42V27h4Z" fill="#ffffff" data-original="#000000" style="" class=""/><path d="M52,14H51a1,1,0,0,0,0,2h1a1,1,0,0,0,0-2Z" fill="#ffffff" data-original="#000000" style="" class=""/><path d="M52,18H51a1,1,0,0,0,0,2h1a1,1,0,0,0,0-2Z" fill="#ffffff" data-original="#000000" style="" class=""/><path d="M52,25H51a1,1,0,0,0,0,2h1a1,1,0,0,0,0-2Z" fill="#ffffff" data-original="#000000" style="" class=""/><path d="M52,29H51a1,1,0,0,0,0,2h1a1,1,0,0,0,0-2Z" fill="#ffffff" data-original="#000000" style="" class=""/></g></g></g></svg>
